<?xml version="1.0" encoding="UTF-8" standalone="no"?>
<!-- Creator: CorelDRAW X6 -->

<?xml-stylesheet href="air-conditioner.css" type="text/css"?><svg
   xmlns:dc="http://purl.org/dc/elements/1.1/"
   xmlns:cc="http://creativecommons.org/ns#"
   xmlns:rdf="http://www.w3.org/1999/02/22-rdf-syntax-ns#"
   xmlns:svg="http://www.w3.org/2000/svg"
   xmlns="http://www.w3.org/2000/svg"
   xmlns:sodipodi="http://sodipodi.sourceforge.net/DTD/sodipodi-0.dtd"
   xmlns:inkscape="http://www.inkscape.org/namespaces/inkscape"
   xml:space="preserve"
   width="127.941"
   height="100.24593"
   version="1.1"
   style="clip-rule:evenodd;fill-rule:evenodd;image-rendering:optimizeQuality;shape-rendering:geometricPrecision;text-rendering:geometricPrecision"
   viewBox="0 0 127941 100186.41"
   id="svg6"
   sodipodi:docname="air-conditioner.svg"
   inkscape:version="0.92.3 (2405546, 2018-03-11)"><metadata
   id="metadata12"><rdf:RDF><cc:Work
       rdf:about=""><dc:format>image/svg+xml</dc:format><dc:type
         rdf:resource="http://purl.org/dc/dcmitype/StillImage" /><dc:title></dc:title></cc:Work></rdf:RDF></metadata><defs
   id="defs10" /><sodipodi:namedview
   pagecolor="#ffffff"
   bordercolor="#666666"
   borderopacity="1"
   objecttolerance="10"
   gridtolerance="10"
   guidetolerance="10"
   inkscape:pageopacity="0"
   inkscape:pageshadow="2"
   inkscape:window-width="640"
   inkscape:window-height="480"
   id="namedview8"
   showgrid="false"
   fit-margin-top="0"
   fit-margin-left="0"
   fit-margin-right="0"
   fit-margin-bottom="0"
   inkscape:zoom="1.5855316"
   inkscape:cx="102.62585"
   inkscape:cy="69.909551"
   inkscape:window-x="0"
   inkscape:window-y="0"
   inkscape:window-maximized="0"
   inkscape:current-layer="svg6" />
 <g
   id="Слой_x0020_1"
   transform="translate(-233529,-370705.76)">
  <metadata
   id="CorelCorpID_0Corel-Layer" />
  <path
   class="fil0"
   d="m 254853,430382 c -1178,0 -2132,955 -2132,2132 v 3838 c 31,10635 -4192,20839 -11728,28341 l -2559,2559 c -554,535 -777,1329 -581,2074 195,746 778,1328 1523,1522 746,196 1538,-27 2073,-581 l 2559,-2559 c 8339,-8299 13012,-19590 12978,-31356 v -3838 c 0,-1178 -955,-2132 -2132,-2132 v 0 z M 355073,370676 H 239926 c -3533,0 -6397,2864 -6397,6397 v 42647 c 0,3533 2864,6397 6397,6397 h 115147 c 3533,0 6397,-2865 6397,-6397 v -42647 c 0,-3533 -2864,-6397 -6397,-6397 z m -78207,14926 h 41267 c 329,0 598,271 598,598 v 3338 c 0,327 -271,598 -598,598 h -41267 c -327,0 -598,-269 -598,-598 v -3338 c 0,-329 269,-598 598,-598 z m 63743,-6531 h 3338 c 329,0 598,269 598,598 v 3338 c 0,329 -269,598 -598,598 h -3338 c -329,0 -598,-269 -598,-598 v -3338 c 0,-329 269,-598 598,-598 z m 8395,0 h 3338 c 329,0 598,269 598,598 v 3338 c 0,329 -269,598 -598,598 h -3338 c -329,0 -598,-269 -598,-598 v -3338 c 0,-329 269,-598 598,-598 z m -100549,42781 v -4265 h 98088 v 4265 z m 98088,-8529 h -98088 v -4265 h 98088 z m 10662,6397 c 0,1178 -955,2132 -2132,2132 h -4265 c 0,-3946 0,-7892 0,-11838 0,-4529 110,-5221 -7600,-5221 -30759,0 -61518,0 -92277,0 -7242,320 -6820,-20 -6740,5780 v 11279 h -4265 c -1178,0 -2132,-955 -2132,-2132 v -42647 c 0,-1178 955,-2132 2132,-2132 h 115147 c 1178,0 2132,955 2132,2132 z m -59706,49044 v -34117 c 0,-1178 -955,-2132 -2132,-2132 -1178,0 -2132,955 -2132,2132 v 34117 c 0,1178 955,2132 2132,2132 1178,0 2132,-955 2132,-2132 z m 21323,-34118 c -1178,0 -2132,955 -2132,2132 v 6246 c -28,10224 4037,20036 11287,27247 837,808 2167,796 2989,-26 823,-823 834,-2152 26,-2989 -6448,-6413 -10062,-15138 -10037,-24232 v -6246 c 0,-1178 -955,-2132 -2132,-2132 z m -51801,35625 c 7250,-7210 11315,-17022 11287,-27247 v -6246 c 0,-1178 -955,-2132 -2132,-2132 -1178,0 -2132,955 -2132,2132 v 6246 c 25,9094 -3589,17819 -10037,24232 -554,535 -777,1329 -581,2074 195,746 777,1328 1522,1522 745,196 1539,-27 2074,-581 v 0 z m 73124,-39890 c -1178,0 -2132,955 -2132,2132 v 3838 c -32,11768 4645,23058 12988,31357 l 2559,2559 c 837,808 2167,797 2989,-26 823,-823 834,-2152 26,-2989 l -2559,-2559 c -7540,-7500 -11768,-17706 -11739,-28341 v -3838 c 0,-1178 -955,-2132 -2132,-2132 z"
   id="path3"
   inkscape:connector-curvature="0" />
 </g>
</svg>