<?xml version="1.0" encoding="UTF-8" standalone="no"?>
<!-- Creator: CorelDRAW X6 -->

<?xml-stylesheet href="ceiling.css" type="text/css"?><svg
   xmlns:dc="http://purl.org/dc/elements/1.1/"
   xmlns:cc="http://creativecommons.org/ns#"
   xmlns:rdf="http://www.w3.org/1999/02/22-rdf-syntax-ns#"
   xmlns:svg="http://www.w3.org/2000/svg"
   xmlns="http://www.w3.org/2000/svg"
   xmlns:sodipodi="http://sodipodi.sourceforge.net/DTD/sodipodi-0.dtd"
   xmlns:inkscape="http://www.inkscape.org/namespaces/inkscape"
   xml:space="preserve"
   width="128.29431"
   height="83.760887"
   version="1.1"
   style="clip-rule:evenodd;fill-rule:evenodd;image-rendering:optimizeQuality;shape-rendering:geometricPrecision;text-rendering:geometricPrecision"
   viewBox="0 0 128294.31 83760.887"
   id="svg8"
   sodipodi:docname="ceiling.svg"
   inkscape:version="0.92.3 (2405546, 2018-03-11)"><metadata
   id="metadata14"><rdf:RDF><cc:Work
       rdf:about=""><dc:format>image/svg+xml</dc:format><dc:type
         rdf:resource="http://purl.org/dc/dcmitype/StillImage" /><dc:title></dc:title></cc:Work></rdf:RDF></metadata><defs
   id="defs12" /><sodipodi:namedview
   pagecolor="#ffffff"
   bordercolor="#666666"
   borderopacity="1"
   objecttolerance="10"
   gridtolerance="10"
   guidetolerance="10"
   inkscape:pageopacity="0"
   inkscape:pageshadow="2"
   inkscape:window-width="640"
   inkscape:window-height="480"
   id="namedview10"
   showgrid="false"
   fit-margin-top="0"
   fit-margin-left="0"
   fit-margin-right="0"
   fit-margin-bottom="0"
   inkscape:zoom="3.6875"
   inkscape:cx="108.78521"
   inkscape:cy="12.735959"
   inkscape:window-x="0"
   inkscape:window-y="0"
   inkscape:window-maximized="0"
   inkscape:current-layer="svg8" />
 <g
   id="Слой_x0020_1"
   transform="translate(128.85811,-18772)">
  <metadata
   id="CorelCorpID_0Corel-Layer" />
  <path
   class="fil0"
   d="M 80998,102345 H 3654 c -4456,0 -3789,-2784 -3691,-2760 117,-380 358,-761 730,-1125 L 38953,61016 c 0,-437 2845,-1632 3280,-1773 1311,-425 2792,-689 4123,-689 h 77344 c 1168,0 2875,211 3536,1330 562,947 126,1870 -578,2558 L 88402,99882 c -724,708 -1926,2023 -3280,2462 -1311,425 -2790,0 -4123,0 z M 13695,62562 H 4023 c -2104,0 -5518,-1384 -2961,-3884 L 39322,21234 c 0,-636 2738,-1597 3280,-1773 1311,-425 2792,-689 4123,-689 h 77344 c 1055,0 1913,168 2519,456 461,219 804,515 1017,875 256,434 315,916 158,1428 -116,379 -359,761 -737,1130 l -13661,13370 c -606,592 -4692,289 -5762,289 l 1190,-1164 H 87151 l -1190,1164 c -1822,0 -3645,0 -5467,0 l 1190,-1164 H 57672 l -1190,1164 c -1822,0 -3644,0 -5466,0 l 1190,-1164 H 30564 L 19299,46181 h 11409 l -3186,3268 H 15960 L 5898,59296 h 11543 l -3341,3268 h -404 z M 33904,31886 H 55546 L 65608,22039 H 45430 c -460,0 -1778,307 -2095,616 l -9432,9231 z m 27109,0 H 85025 L 95087,22039 H 71075 Z m 29479,0 h 21642 l 10062,-9847 H 100555 L 90493,31886 Z M 13717,82131 H 4327 c -1054,0 -1912,-168 -2517,-456 C 245,80931 186,79401 1366,78247 L 39626,40803 c 41,-1 2785,-1697 3405,-1898 1312,-425 2667,-564 3998,-564 h 77344 c 1545,0 4353,606 3694,2758 -116,379 -359,761 -737,1130 l -13974,13745 -5449,-86 1190,-1164 H 87455 l -1145,1313 -5511,-149 1190,-1164 H 57976 l -1190,1164 h -5465 l 1189,-1164 H 30868 L 19603,65749 h 11274 l -3342,3268 H 16264 L 6202,78864 h 11261 l -3051,2983 -695,285 z M 34207,51455 H 55849 L 65911,41608 H 45733 c -415,0 -877,82 -1287,215 -366,119 -667,264 -812,405 l -9428,9227 z m 27109,0 H 85328 L 95390,41608 H 71378 Z m 29479,0 h 21642 l 10062,-9847 H 100857 Z M 33536,71668 H 55178 L 65240,61821 H 45062 c -415,0 -877,82 -1287,215 -367,118 -666,262 -807,401 z m 27108,0 H 84657 L 94719,61821 H 70707 l -10062,9847 z m 29479,0 h 21642 l 10062,-9847 h -21641 l -10062,9847 z m 18303,3268 H 86784 L 75519,85961 h 21642 z m -27108,0 H 57306 L 46041,85961 h 24012 z m -29479,0 H 30197 L 18932,85961 H 40574 Z M 93822,89229 H 72180 l -10062,9847 h 20178 c 722,0 1557,-90 2094,-617 l 9432,-9231 z m -27109,0 H 42701 l -10062,9847 h 24012 z m -29479,0 H 15592 L 5530,99076 h 21642 z"
   id="path3"
   inkscape:connector-curvature="0" />
 </g>
 <g
   id="Слой_x0020_1_0"
   transform="translate(128.85811,-18772)">
  <metadata
   id="CorelCorpID_1Corel-Layer" />
 </g>
</svg>