<?xml version="1.0" encoding="UTF-8" standalone="no"?>
<!-- Creator: CorelDRAW X6 -->

<?xml-stylesheet href="drawer.css" type="text/css"?><svg
   xmlns:dc="http://purl.org/dc/elements/1.1/"
   xmlns:cc="http://creativecommons.org/ns#"
   xmlns:rdf="http://www.w3.org/1999/02/22-rdf-syntax-ns#"
   xmlns:svg="http://www.w3.org/2000/svg"
   xmlns="http://www.w3.org/2000/svg"
   xmlns:sodipodi="http://sodipodi.sourceforge.net/DTD/sodipodi-0.dtd"
   xmlns:inkscape="http://www.inkscape.org/namespaces/inkscape"
   xml:space="preserve"
   width="127.943"
   height="127.939"
   version="1.1"
   style="clip-rule:evenodd;fill-rule:evenodd;image-rendering:optimizeQuality;shape-rendering:geometricPrecision;text-rendering:geometricPrecision"
   viewBox="0 0 127943 127863.03"
   id="svg6"
   sodipodi:docname="drawer.svg"
   inkscape:version="0.92.3 (2405546, 2018-03-11)"><metadata
   id="metadata12"><rdf:RDF><cc:Work
       rdf:about=""><dc:format>image/svg+xml</dc:format><dc:type
         rdf:resource="http://purl.org/dc/dcmitype/StillImage" /><dc:title></dc:title></cc:Work></rdf:RDF></metadata><defs
   id="defs10" /><sodipodi:namedview
   pagecolor="#ffffff"
   bordercolor="#666666"
   borderopacity="1"
   objecttolerance="10"
   gridtolerance="10"
   guidetolerance="10"
   inkscape:pageopacity="0"
   inkscape:pageshadow="2"
   inkscape:window-width="640"
   inkscape:window-height="480"
   id="namedview8"
   showgrid="false"
   fit-margin-top="0"
   fit-margin-left="0"
   fit-margin-right="0"
   fit-margin-bottom="0"
   inkscape:zoom="1.5855316"
   inkscape:cx="1.6423085"
   inkscape:cy="102.38391"
   inkscape:window-x="0"
   inkscape:window-y="0"
   inkscape:window-maximized="0"
   inkscape:current-layer="svg6" />
 <g
   id="Слой_x0020_1"
   transform="translate(-233530,-356818.99)">
  <metadata
   id="CorelCorpID_0Corel-Layer" />
  <path
   class="fil0"
   d="m 357343,435195 v -24763 c 2276,0 4127,-1851 4127,-4127 v -4127 c 0,-2276 -1851,-4127 -4127,-4127 h -11321 c 2638,-4804 81,-7966 -3124,-11172 v -5336 h -4127 v -12381 h 4127 c 4552,0 8254,-3702 8254,-8254 v -4127 h -8254 c -4553,0 -8254,3702 -8254,8254 v 1148 c -1219,-710 -2617,-1148 -4127,-1148 h -8254 v 4127 c 0,4552 3702,8254 8254,8254 h 4127 v 4127 h -4127 v 5336 c -3206,3206 -5762,6369 -3125,11172 h -7193 v -16508 h -2117 c 5107,-6741 365,-16508 -8201,-16508 h -26826 v 20635 h 2117 c -2800,3696 -2800,8685 0,12381 h -6244 c 0,-10856 0,-21713 0,-32569 39,-4257 27,-4499 -4023,-4489 -9647,20 -19294,40 -28942,60 -4077,36 -4179,-122 -4179,3809 v 33266 l -4127,-77 c -2276,0 -4127,1851 -4127,4127 v 4127 c 0,2276 1851,4127 4127,4127 v 53653 c -2276,0 -4127,1851 -4127,4127 v 4127 c 0,2276 1851,4127 4127,4127 h 4580 l 2064,8254 h 15604 l 2064,-8254 h 71066 l 2064,8254 h 15603 l 2064,-8254 h 4580 c 2276,0 4127,-1851 4127,-4127 v -4127 c 0,-2276 -1851,-4127 -4127,-4127 V 435195 Z M 254708,414736 h 3018 c 256,0 464,209 464,464 v 3018 c 0,255 -209,464 -464,464 h -3018 c -255,0 -464,-209 -464,-464 v -3018 c 0,-255 209,-464 464,-464 z m 0,8203 h 3018 c 256,0 464,209 464,464 v 3018 c 0,256 -209,464 -464,464 h -3018 c -255,0 -464,-209 -464,-464 v -3018 c 0,-256 209,-464 464,-464 z m 57979,-8357 h 3018 c 256,0 464,210 464,464 v 26852 c 0,255 -210,464 -464,464 h -3018 c -255,0 -464,-209 -464,-464 v -26852 c 0,-256 209,-464 464,-464 z m 20429,0 h 3018 c 256,0 464,209 464,464 v 11375 c 0,255 -209,464 -464,464 h -3018 c -255,0 -464,-209 -464,-464 v -11375 c 0,-256 209,-464 464,-464 z m 0,16560 h 3018 c 256,0 464,209 464,464 v 3018 c 0,256 -209,464 -464,464 h -3018 c -256,0 -464,-209 -464,-464 v -3018 c 0,-256 209,-464 464,-464 z m -45811,-4721 v -3018 c 0,-256 209,-464 464,-464 h 3018 c 255,0 464,209 464,464 v 3018 c 0,256 -209,464 -464,464 h -3018 c -256,0 -464,-209 -464,-464 z m 8203,0 v -3018 c 0,-256 209,-464 464,-464 h 3018 c 256,0 464,209 464,464 v 3018 c 0,256 -209,464 -464,464 h -3018 c -255,0 -464,-209 -464,-464 z m -24240,-11685 h 3018 c 256,0 464,209 464,464 v 3018 c 0,255 -209,464 -464,464 h -3018 c -256,0 -464,-209 -464,-464 v -3018 c 0,-255 209,-464 464,-464 z m 0,8203 h 3018 c 256,0 464,209 464,464 v 3018 c 0,256 -209,464 -464,464 h -3018 c -256,0 -464,-209 -464,-464 v -3018 c 0,-256 209,-464 464,-464 z m 71630,-62032 h 4127 c 0,2276 -1851,4127 -4127,4127 h -4127 c 0,-2276 1851,-4127 4127,-4127 z m -12381,12381 c -2276,0 -4127,-1851 -4127,-4127 h 4127 c 2276,0 4127,1851 4127,4127 z m 22699,61907 v 2064 c 0,1139 -927,2064 -2064,2064 h -16508 c -8140,0 -8140,12382 0,12382 2713,0 2713,4127 0,4127 h -26826 v -45398 h 45398 v 24763 z m -66034,28890 v -16508 h -30953 c -2332,0 -4462,807 -6191,2117 v -6244 h 53653 v 16508 h 30953 c 3413,0 6191,-2778 6191,-6191 v -10318 h 4127 v 20635 h -57780 z m -24763,-53653 v 20636 h -12381 v -20636 z m 41271,28890 h -53653 v -4127 h 53653 z m 0,-8254 h -20636 v -12381 h 20636 z m 0,-16509 h -20636 v -4127 h 20636 z m -24763,16509 h -12381 v -20636 h 12381 z m -22699,20635 h 26826 v 12381 h -26826 c -8090,0 -8642,-12381 0,-12381 z m 80479,-3747 c -648,-232 -1337,-380 -2064,-380 -2713,0 -2713,-4127 0,-4127 h 2064 z m -5084,-56348 3021,-3021 v -2918 h 4127 v 2918 l 3021,3021 c 2348,2348 715,6442 -2668,6442 h -4835 c -3408,0 -4999,-4109 -2666,-6442 z m -44441,-22447 h 22699 c 8140,0 8140,12381 0,12381 h -22699 z m 6191,16508 h 22699 v 12381 h -22699 c -8140,0 -8140,-12381 0,-12381 z m -47462,-20635 h 28890 v 33017 h -28890 z m -8254,37144 h 119687 v 4127 H 237657 Z m 4127,8254 h 4127 v 53653 h -4127 z m 14897,70161 h -9159 l -1032,-4127 h 11223 z m 90797,0 h -9159 l -1032,-4127 h 11223 z m 9865,-8254 H 237656 v -4127 h 119687 z m -8254,-8254 v -20635 h 2064 c 726,0 1416,-148 2064,-380 v 21015 h -4127 z m -99051,-94924 v 24763 h 20636 v -24763 z m 16509,20636 h -12381 v -16509 h 12381 z"
   id="path3"
   inkscape:connector-curvature="0" />
 </g>
</svg>