<?xml version="1.0" encoding="UTF-8" standalone="no"?>
<!-- Creator: CorelDRAW X6 -->

<?xml-stylesheet href="polusuhaja-stjazhka.css" type="text/css"?><svg
   xmlns:dc="http://purl.org/dc/elements/1.1/"
   xmlns:cc="http://creativecommons.org/ns#"
   xmlns:rdf="http://www.w3.org/1999/02/22-rdf-syntax-ns#"
   xmlns:svg="http://www.w3.org/2000/svg"
   xmlns="http://www.w3.org/2000/svg"
   xmlns:sodipodi="http://sodipodi.sourceforge.net/DTD/sodipodi-0.dtd"
   xmlns:inkscape="http://www.inkscape.org/namespaces/inkscape"
   xml:space="preserve"
   width="120.09125"
   height="113.343"
   version="1.1"
   style="clip-rule:evenodd;fill-rule:evenodd;image-rendering:optimizeQuality;shape-rendering:geometricPrecision;text-rendering:geometricPrecision"
   viewBox="0 0 120091.25 113343"
   id="svg10"
   sodipodi:docname="polusuhaja-stjazhka.svg"
   inkscape:version="0.92.3 (2405546, 2018-03-11)"><metadata
   id="metadata16"><rdf:RDF><cc:Work
       rdf:about=""><dc:format>image/svg+xml</dc:format><dc:type
         rdf:resource="http://purl.org/dc/dcmitype/StillImage" /><dc:title></dc:title></cc:Work></rdf:RDF></metadata><defs
   id="defs14" /><sodipodi:namedview
   pagecolor="#ffffff"
   bordercolor="#666666"
   borderopacity="1"
   objecttolerance="10"
   gridtolerance="10"
   guidetolerance="10"
   inkscape:pageopacity="0"
   inkscape:pageshadow="2"
   inkscape:window-width="640"
   inkscape:window-height="480"
   id="namedview12"
   showgrid="false"
   fit-margin-top="0"
   fit-margin-left="0"
   fit-margin-right="0"
   fit-margin-bottom="0"
   inkscape:zoom="3.6875"
   inkscape:cx="50.893308"
   inkscape:cy="77.678799"
   inkscape:window-x="0"
   inkscape:window-y="0"
   inkscape:window-maximized="0"
   inkscape:current-layer="svg10" />
 <g
   id="Слой_x0020_1"
   transform="translate(-7819,-5240)">
  <metadata
   id="CorelCorpID_0Corel-Layer" />
  <path
   class="fil0"
   d="m 59440,96904 c 563,39 1107,87 1629,146 L 123441,6853 c 614,-888 1944,-1613 2956,-1613 h 478 c 1013,0 1339,726 725,1613 L 64759,97728 c 1558,444 2496,1014 2496,1636 0,1414 -4842,2561 -10815,2561 -5973,0 -10815,-1146 -10815,-2561 0,-1168 3300,-2153 7812,-2460 v -8478 h -3965 c -1098,0 -1997,-899 -1997,-1997 v -2784 c 0,-1099 899,-1997 1997,-1997 h 13934 c 1099,0 1997,899 1997,1997 v 2784 c 0,1098 -899,1997 -1997,1997 h -3967 v 8477 z m 1318,-6814 c 1196,56 2369,133 3516,228 l -1394,2032 c -699,-48 -1406,-90 -2123,-124 v -2136 z m 9963,1002 c 2640,423 5052,956 7167,1577 6049,1775 9792,4388 9792,7416 0,3028 -3743,5641 -9792,7416 -5672,1665 -13484,2695 -22088,2695 -8605,0 -16416,-1030 -22089,-2695 -6049,-1775 -9792,-4388 -9792,-7416 0,-3028 3743,-5641 9792,-7416 4778,-1402 11074,-2354 18083,-2619 v 2135 c -6805,261 -12888,1178 -17483,2527 -5102,1497 -8258,3408 -8258,5374 0,1966 3156,3877 8258,5374 5479,1608 13075,2603 21488,2603 8413,0 16009,-995 21488,-2603 5102,-1497 8258,-3408 8258,-5374 0,-1966 -3156,-3877 -8258,-5374 -2295,-674 -4961,-1239 -7903,-1670 l 1337,-1949 z m -2754,4016 c 904,155 1753,327 2541,513 4213,998 6818,2565 6818,4464 0,1900 -2604,3467 -6814,4464 h -4 c -3778,894 -8980,1448 -14710,1448 -5729,0 -10931,-554 -14710,-1448 h -4 c -4209,-997 -6814,-2564 -6814,-4464 0,-1899 2606,-3466 6818,-4464 2875,-681 6575,-1164 10704,-1356 v 2136 c -3958,188 -7487,649 -10221,1296 -3192,756 -5167,1612 -5167,2388 0,775 1977,1631 5171,2388 v 1 c 3627,858 8654,1389 14223,1389 5568,0 10596,-531 14222,-1389 v -1 c 3195,-757 5172,-1613 5172,-2388 0,-776 -1975,-1632 -5168,-2388 -1025,-243 -2162,-459 -3392,-645 l 1334,-1945 z M 52755,55077 h 7363 c 2906,0 5282,2378 5282,5283 v 14079 c 0,2905 -2378,5283 -5282,5283 h -7363 c -2905,0 -5282,-2377 -5282,-5283 V 60360 c 0,-2906 2377,-5283 5282,-5283 z"
   id="path3"
   inkscape:connector-curvature="0" />
  <path
   class="fil0"
   d="m 8477,116197 h 110917 c 362,0 658,291 658,646 v 1094 c 0,355 -296,646 -658,646 H 8477 c -362,0 -658,-291 -658,-646 v -1094 c 0,-355 296,-646 658,-646 z"
   id="path5"
   inkscape:connector-curvature="0" />
  <path
   class="fil0"
   d="m 8477,112297 h 110917 c 362,0 658,291 658,646 v 1094 c 0,355 -296,646 -658,646 H 8477 c -362,0 -658,-291 -658,-646 v -1094 c 0,-355 296,-646 658,-646 z"
   id="path7"
   inkscape:connector-curvature="0" />
 </g>
</svg>