<?xml version="1.0" encoding="UTF-8" standalone="no"?>
<!-- Creator: CorelDRAW X6 -->

<?xml-stylesheet href="trowel.css" type="text/css"?><svg
   xmlns:dc="http://purl.org/dc/elements/1.1/"
   xmlns:cc="http://creativecommons.org/ns#"
   xmlns:rdf="http://www.w3.org/1999/02/22-rdf-syntax-ns#"
   xmlns:svg="http://www.w3.org/2000/svg"
   xmlns="http://www.w3.org/2000/svg"
   xmlns:sodipodi="http://sodipodi.sourceforge.net/DTD/sodipodi-0.dtd"
   xmlns:inkscape="http://www.inkscape.org/namespaces/inkscape"
   xml:space="preserve"
   width="127.999"
   height="127.998"
   version="1.1"
   style="clip-rule:evenodd;fill-rule:evenodd;image-rendering:optimizeQuality;shape-rendering:geometricPrecision;text-rendering:geometricPrecision"
   viewBox="0 0 127999 127998"
   id="svg6"
   sodipodi:docname="trowel.svg"
   inkscape:version="0.92.3 (2405546, 2018-03-11)"><metadata
   id="metadata12"><rdf:RDF><cc:Work
       rdf:about=""><dc:format>image/svg+xml</dc:format><dc:type
         rdf:resource="http://purl.org/dc/dcmitype/StillImage" /><dc:title></dc:title></cc:Work></rdf:RDF></metadata><defs
   id="defs10" /><sodipodi:namedview
   pagecolor="#ffffff"
   bordercolor="#666666"
   borderopacity="1"
   objecttolerance="10"
   gridtolerance="10"
   guidetolerance="10"
   inkscape:pageopacity="0"
   inkscape:pageshadow="2"
   inkscape:window-width="640"
   inkscape:window-height="480"
   id="namedview8"
   showgrid="false"
   fit-margin-top="0"
   fit-margin-left="0"
   fit-margin-right="0"
   fit-margin-bottom="0"
   inkscape:zoom="5.2149125"
   inkscape:cx="119.1329"
   inkscape:cy="35.73244"
   inkscape:window-x="0"
   inkscape:window-y="0"
   inkscape:window-maximized="0"
   inkscape:current-layer="svg6" />
 <g
   id="Слой_x0020_1"
   transform="translate(-1)">
  <metadata
   id="CorelCorpID_0Corel-Layer" />
  <path
   class="fil0"
   d="m 38460,47656 c 508,2077 950,4114 1344,6092 197,998 1072,1718 2089,1719 140,0 279,-13 417,-41 1155,-229 1906,-1352 1677,-2507 -402,-2038 -860,-4135 -1381,-6275 -179,-742 -742,-1331 -1475,-1546 -732,-215 -1524,-21 -2075,507 -551,527 -778,1310 -596,2051 z m 34073,29144 h 4267 v 4266 H 72533 V 76799 Z M 55466,68267 h 8533 v 4267 H 55466 Z M 68266,81067 V 76800 H 55466 v 4266 H 68266 Z M 59733,8534 h 4267 v 4266 H 59733 V 8533 Z m -17067,0 h 12800 v 4266 H 42666 V 8533 Z m 81067,27733 v -8533 c 0,-1178 -955,-2133 -2133,-2133 h -12800 c -1178,0 -2133,955 -2133,2133 v 8533 c 0,1178 955,2133 2133,2133 h 12800 c 1178,0 2133,-955 2133,-2133 z m -4267,-2133 h -8533 v -4267 h 8533 z m -14933,21333 c -1178,0 -2133,955 -2133,2133 v 8533 c 0,1178 955,2133 2133,2133 h 8533 c 1178,0 2133,-955 2133,-2133 v -8533 c 0,-1178 -955,-2133 -2133,-2133 z m 6400,8533 h -4267 v -4267 h 4267 z M 128000,14933 V 2133 C 128000,955 127045,0 125867,0 h -8533 c -1178,0 -2133,955 -2133,2133 v 12800 c 0,1178 955,2133 2133,2133 h 8533 c 1178,0 2133,-955 2133,-2133 z m -4267,-2133 h -4267 V 4267 h 4267 z M 83,79454 c 47,178 117,349 208,509 32,57 51,119 88,174 146,210 327,393 537,538 12,9 19,24 32,32 98,56 201,105 307,145 66,39 132,73 201,104 l 19875,6625 v 6284 h -2133 c -1178,0 -2133,955 -2133,2133 v 21333 c 0,5891 4776,10667 10667,10667 5891,0 10667,-4776 10667,-10667 V 95998 c 0,-1178 -955,-2133 -2133,-2133 h -2133 v -4267 h 85333 c 4713,0 8533,-3821 8533,-8533 0,-4713 -3821,-8533 -8533,-8533 H 98133 V 57599 c 0,-1178 -955,-2133 -2133,-2133 H 93867 V 44800 c 0,-1178 -955,-2133 -2133,-2133 H 76801 v -4267 h 19200 c 3534,0 6400,-2866 6400,-6400 0,-3535 -2866,-6400 -6400,-6400 H 81068 v -8533 h 21333 c 4712,0 8533,-3821 8533,-8533 C 110934,3821 107113,1 102401,1 H 27734 c -287,6 -569,71 -829,190 l -48,23 c -232,104 -443,249 -623,428 -20,20 -48,26 -67,46 l -50,56 -12,16 C 300,28794 1,76900 1,78935 c 28,174 55,347 83,521 v 0 z m 11865,502 8987,-12583 c 685,-958 463,-2291 -496,-2975 -958,-685 -2290,-463 -2975,496 L 7713,78545 5457,77793 12441,67317 c 431,-634 490,-1451 152,-2140 -338,-690 -1020,-1144 -1786,-1191 -766,-47 -1497,321 -1917,963 L 4652,71305 C 5787,57008 10246,25785 27724,5353 c 73,86 150,169 223,254 335,397 658,802 984,1205 308,382 619,763 919,1152 319,412 626,834 935,1254 290,394 580,785 861,1184 303,429 596,865 889,1301 270,401 541,801 803,1207 287,445 566,896 844,1348 252,407 505,816 749,1228 270,455 531,915 792,1375 237,417 474,834 703,1255 254,467 502,937 748,1408 219,421 439,843 651,1266 240,478 473,958 704,1439 203,423 406,847 603,1272 225,485 444,974 662,1462 189,426 377,853 560,1282 209,491 415,981 616,1474 175,428 348,855 518,1284 196,496 389,993 576,1490 162,427 321,854 477,1282 183,498 361,997 534,1495 149,426 295,851 439,1276 170,503 335,1005 498,1506 135,418 268,834 397,1251 158,507 314,1015 466,1521 122,410 242,820 359,1228 145,505 287,1008 427,1510 113,409 223,817 330,1223 132,498 262,995 389,1489 102,402 202,803 299,1202 122,496 242,991 357,1482 91,387 178,773 266,1159 111,493 222,984 327,1472 81,380 159,756 238,1132 101,482 200,963 295,1439 73,368 141,730 211,1093 90,477 182,954 268,1424 63,352 124,698 185,1046 81,463 162,927 238,1381 57,347 111,687 166,1029 71,444 143,889 208,1323 51,333 97,657 145,982 63,431 126,862 184,1283 44,318 83,625 124,937 55,409 109,822 159,1221 37,302 72,594 107,890 47,395 95,791 139,1174 31,276 58,541 88,810 41,376 82,756 119,1119 27,268 50,522 75,782 33,347 68,697 98,1029 23,255 42,495 62,742 27,311 55,629 78,926 19,242 34,464 52,695 21,284 44,577 62,846 15,220 27,420 41,630 16,249 33,506 47,740 14,231 25,437 36,651 10,190 22,393 31,571 10,200 18,374 26,559 7,164 16,343 22,494 14,318 24,608 32,867 l -17033,5677 v -8418 c 0,-1178 -955,-2133 -2133,-2133 h -8533 c -1178,0 -2133,955 -2133,2133 v 8417 l -9385,-3128 z m 22185,37377 c 0,3535 -2866,6400 -6400,6400 -3534,0 -6400,-2866 -6400,-6400 V 98133 H 34133 Z M 25600,93866 V 76799 h 4267 V 93866 Z M 102400,4266 c 2356,0 4267,1910 4267,4267 0,2356 -1911,4266 -4267,4266 H 78933 c -1178,0 -2133,955 -2133,2133 v 12800 c 0,1178 955,2133 2133,2133 h 17067 c 1178,0 2133,955 2133,2133 0,1178 -955,2133 -2133,2133 H 74667 c -1178,0 -2133,955 -2133,2133 v 8533 c 0,1178 955,2133 2133,2133 h 14933 v 10667 c 0,1178 955,2133 2133,2133 h 2133 v 14933 c 0,1178 955,2133 2133,2133 h 23467 c 2356,0 4267,1910 4267,4266 0,2356 -1910,4267 -4267,4267 H 40879 l 13129,-4376 c 871,-291 1458,-1106 1458,-2024 0,-125 -1,-425 -9,-879 -1,-77 -4,-176 -5,-261 -4,-169 -7,-333 -12,-535 -3,-119 -8,-262 -12,-392 -6,-204 -12,-403 -21,-634 -5,-148 -12,-314 -19,-474 -10,-252 -21,-502 -33,-781 -9,-164 -18,-346 -27,-521 -14,-302 -31,-605 -50,-933 -10,-190 -24,-392 -37,-590 -21,-342 -42,-685 -68,-1051 -14,-215 -31,-440 -48,-662 -28,-382 -57,-769 -90,-1174 -19,-230 -39,-468 -59,-705 -35,-419 -73,-844 -115,-1284 -24,-259 -50,-524 -76,-790 -44,-445 -90,-896 -139,-1360 -30,-278 -60,-559 -93,-845 -53,-478 -109,-964 -170,-1460 -35,-294 -72,-590 -109,-890 -63,-508 -131,-1024 -202,-1549 -43,-310 -85,-623 -130,-940 -74,-528 -153,-1064 -234,-1606 -50,-331 -101,-662 -153,-998 -88,-554 -178,-1115 -274,-1682 -57,-340 -113,-677 -174,-1021 -101,-580 -208,-1168 -318,-1759 -64,-346 -127,-690 -195,-1040 -117,-609 -242,-1226 -368,-1846 -71,-344 -138,-684 -212,-1031 -135,-641 -280,-1289 -426,-1941 -76,-338 -150,-673 -228,-1013 -155,-669 -321,-1344 -488,-2021 -82,-333 -162,-664 -246,-999 -179,-703 -370,-1412 -561,-2122 -86,-314 -166,-625 -253,-940 -209,-752 -432,-1509 -657,-2268 -83,-279 -160,-556 -246,-837 -251,-826 -517,-1655 -787,-2485 -70,-215 -135,-427 -205,-641 -331,-998 -677,-1997 -1037,-2997 -18,-48 -32,-96 -50,-143 -771,-2131 -1610,-4264 -2525,-6381 l -23,-51 c -442,-1022 -901,-2040 -1379,-3054 l -5,-14 H 64002 V 17063 H 42669 v 3799 c -32,-69 -68,-136 -101,-204 -383,-799 -771,-1595 -1177,-2385 -163,-316 -336,-626 -502,-940 -370,-700 -740,-1399 -1129,-2091 -200,-356 -412,-707 -618,-1060 -372,-641 -744,-1280 -1132,-1911 -234,-381 -480,-754 -721,-1131 -380,-597 -761,-1193 -1158,-1781 -261,-387 -534,-767 -802,-1149 -397,-565 -794,-1129 -1205,-1683 -291,-391 -592,-774 -890,-1159 -283,-367 -555,-742 -846,-1103 h 70015 z M 36362,40036 c 351,1123 1544,1750 2668,1401 1123,-348 1753,-1539 1407,-2663 -1714,-5626 -3899,-11097 -6536,-16354 -344,-681 -1026,-1127 -1788,-1169 -763,-42 -1490,328 -1905,968 -417,641 -458,1454 -111,2134 2527,5041 4623,10288 6265,15683 z"
   id="path3"
   inkscape:connector-curvature="0" />
 </g>
</svg>