<?xml version="1.0" encoding="UTF-8" standalone="no"?>
<!-- Creator: CorelDRAW X6 -->

<?xml-stylesheet href="window.css" type="text/css"?><svg
   xmlns:dc="http://purl.org/dc/elements/1.1/"
   xmlns:cc="http://creativecommons.org/ns#"
   xmlns:rdf="http://www.w3.org/1999/02/22-rdf-syntax-ns#"
   xmlns:svg="http://www.w3.org/2000/svg"
   xmlns="http://www.w3.org/2000/svg"
   xmlns:sodipodi="http://sodipodi.sourceforge.net/DTD/sodipodi-0.dtd"
   xmlns:inkscape="http://www.inkscape.org/namespaces/inkscape"
   xml:space="preserve"
   width="128.00099"
   height="137.144"
   version="1.1"
   style="clip-rule:evenodd;fill-rule:evenodd;image-rendering:optimizeQuality;shape-rendering:geometricPrecision;text-rendering:geometricPrecision"
   viewBox="0 0 128000.99 137144"
   id="svg6"
   sodipodi:docname="window.svg"
   inkscape:version="0.92.3 (2405546, 2018-03-11)"><metadata
   id="metadata12"><rdf:RDF><cc:Work
       rdf:about=""><dc:format>image/svg+xml</dc:format><dc:type
         rdf:resource="http://purl.org/dc/dcmitype/StillImage" /><dc:title></dc:title></cc:Work></rdf:RDF></metadata><defs
   id="defs10" /><sodipodi:namedview
   pagecolor="#ffffff"
   bordercolor="#666666"
   borderopacity="1"
   objecttolerance="10"
   gridtolerance="10"
   guidetolerance="10"
   inkscape:pageopacity="0"
   inkscape:pageshadow="2"
   inkscape:window-width="640"
   inkscape:window-height="480"
   id="namedview8"
   showgrid="false"
   fit-margin-top="0"
   fit-margin-left="0"
   fit-margin-right="0"
   fit-margin-bottom="0"
   inkscape:zoom="2.6074563"
   inkscape:cx="82.747287"
   inkscape:cy="63.738738"
   inkscape:window-x="0"
   inkscape:window-y="0"
   inkscape:window-maximized="0"
   inkscape:current-layer="svg6" />
 <g
   id="Слой_x0020_1"
   transform="translate(3,4571)">
  <metadata
   id="CorelCorpID_0Corel-Layer" />
  <path
   class="fil0"
   d="m 125714,118857 h -4572 -2286 V 8774 c 2706,-908 4571,-3411 4571,-6488 0,-3886 -2971,-6857 -6857,-6857 H 11427 c -3886,0 -6857,2971 -6857,6857 0,3043 1963,5526 4571,6459 V 118858 H 6855 2283 c -1371,0 -2286,914 -2286,2286 0,1371 914,2286 2286,2286 h 2286 v 2286 c 0,3886 2971,6857 6857,6857 h 105143 c 3886,0 6857,-2971 6857,-6857 v -2286 h 2286 c 1371,0 2286,-914 2286,-2286 0,-1371 -914,-2286 -2285,-2286 z M 41142,41143 c -1371,0 -2286,914 -2286,2286 0,1371 914,2286 2286,2286 1372,0 2286,-914 2286,-2286 0,-1371 -914,-2286 -2286,-2286 z m -1600,-7543 c 457,457 914,686 1600,686 686,0 1143,-228 1600,-686 l 6857,-6857 c 914,-914 914,-2286 0,-3200 -914,-914 -2286,-914 -3200,0 l -6857,6857 c -914,914 -914,2286 0,3200 z m -9829,12114 c 686,0 1143,-228 1600,-686 l 4571,-4571 c 914,-914 914,-2286 0,-3200 -914,-914 -2286,-914 -3200,0 l -4571,4571 c -914,914 -914,2286 0,3200 457,457 914,686 1600,686 z m 0,11429 c 686,0 1143,-228 1600,-686 l 4571,-4571 c 914,-914 914,-2286 0,-3200 -914,-914 -2286,-914 -3200,0 l -4571,4572 c -914,914 -914,2286 0,3200 457,457 914,686 1600,686 z M 46399,38172 c 457,457 914,686 1600,686 686,0 1143,-229 1600,-686 L 61027,26743 c 914,-914 914,-2286 0,-3200 -914,-914 -2286,-914 -3200,0 L 46398,34971 c -914,914 -914,2286 0,3200 z M 29713,34286 c 686,0 1143,-228 1600,-686 l 6857,-6857 c 914,-914 914,-2286 0,-3200 -914,-914 -2286,-914 -3200,0 l -6857,6857 c -914,914 -914,2286 0,3200 457,457 914,686 1600,686 z M 11427,0 h 105143 c 1371,0 2286,914 2286,2286 0,1371 -914,2286 -2286,2286 H 11427 C 10056,4572 9141,3429 9141,2286 9141,1143 10284,0 11427,0 Z m 2286,9143 h 100572 v 109715 h -4572 V 82287 16001 c 0,-1371 -914,-2286 -2286,-2286 H 20570 c -1371,0 -2286,914 -2286,2286 v 66286 36571 H 13712 V 9143 Z m 91429,70857 H 22856 V 18286 h 82286 z m -82286,4571 h 82286 v 34286 H 22856 Z m 96000,41143 c 0,1371 -914,2286 -2286,2286 H 11427 c -1371,0 -2286,-914 -2286,-2286 v -2286 h 2286 9143 86857 9143 2286 z"
   id="path3"
   inkscape:connector-curvature="0" />
 </g>
</svg>