<?xml version="1.0" encoding="UTF-8" standalone="no"?>
<!-- Creator: CorelDRAW X6 -->

<?xml-stylesheet href="agreement.css" type="text/css"?><svg
   xmlns:dc="http://purl.org/dc/elements/1.1/"
   xmlns:cc="http://creativecommons.org/ns#"
   xmlns:rdf="http://www.w3.org/1999/02/22-rdf-syntax-ns#"
   xmlns:svg="http://www.w3.org/2000/svg"
   xmlns="http://www.w3.org/2000/svg"
   xmlns:sodipodi="http://sodipodi.sourceforge.net/DTD/sodipodi-0.dtd"
   xmlns:inkscape="http://www.inkscape.org/namespaces/inkscape"
   xml:space="preserve"
   width="130"
   height="92"
   version="1.1"
   style="clip-rule:evenodd;fill-rule:evenodd;image-rendering:optimizeQuality;shape-rendering:geometricPrecision;text-rendering:geometricPrecision"
   viewBox="0 0 130000 92000"
   id="svg29"
   sodipodi:docname="agreement.svg"
   inkscape:version="0.92.3 (2405546, 2018-03-11)"><metadata
   id="metadata35"><rdf:RDF><cc:Work
       rdf:about=""><dc:format>image/svg+xml</dc:format><dc:type
         rdf:resource="http://purl.org/dc/dcmitype/StillImage" /><dc:title></dc:title></cc:Work></rdf:RDF></metadata><defs
   id="defs33" /><sodipodi:namedview
   pagecolor="#ffffff"
   bordercolor="#666666"
   borderopacity="1"
   objecttolerance="10"
   gridtolerance="10"
   guidetolerance="10"
   inkscape:pageopacity="0"
   inkscape:pageshadow="2"
   inkscape:window-width="1261"
   inkscape:window-height="836"
   id="namedview31"
   showgrid="false"
   fit-margin-top="0"
   fit-margin-left="0"
   fit-margin-right="0"
   fit-margin-bottom="0"
   inkscape:zoom="5.2149125"
   inkscape:cx="53.550503"
   inkscape:cy="47.160766"
   inkscape:window-x="0"
   inkscape:window-y="0"
   inkscape:window-maximized="0"
   inkscape:current-layer="svg29" />
 <g
   id="Слой_x0020_1"
   transform="translate(1247.0001,-17865.166)">
  <metadata
   id="CorelCorpID_0Corel-Layer" />
  <g
   id="_801356736">
   <g
   id="g5">
    <path
   class="fil0"
   d="m 126125,61272 c 1036,0 1875,-839 1875,-1875 V 33302 c 0,-3939 -3205,-7144 -7144,-7144 -3537,0 -6480,2584 -7045,5963 -19434,-141 -18957,317 -20471,-416 -1573,-761 -4398,-2439 -7372,-4378 -868,-566 -2030,-320 -2595,547 -566,868 -320,2029 547,2595 6808,4438 8787,5401 11240,5401 h 18552 v 36339 h -6772 c -258,-1638 -1002,-3141 -2100,-4325 C 81856,41993 83573,43889 82566,43870 71038,43656 64526,36579 64466,36512 63221,35115 60252,34846 58645,36305 l -9397,8548 c -1093,994 -2501,1473 -3897,1422 -4089,-151 -5728,-4020 -3561,-6358 5415,-5846 6675,-7204 6892,-7437 -58,62 -141,152 35,-40 5433,-5901 9873,-7845 10052,-7966 5707,-2869 12459,-3256 17807,840 823,630 2000,474 2629,-348 630,-822 475,-1999 -348,-2629 -5575,-4271 -13290,-5215 -21108,-1536 -4815,-1333 -8217,-1500 -10380,-505 -6178,2843 -13187,10232 -15615,11407 -1525,738 -1452,279 -17563,416 C 13626,28740 10683,26156 7147,26156 3208,26157 3,29361 3,33300 v 5833 c 0,1035 840,1875 1875,1875 1036,0 1875,-839 1875,-1875 v -5833 c 0,-1871 1522,-3394 3393,-3394 1871,0 3394,1522 3394,3394 0,1820 0,35943 0,41345 0,1871 -1522,3394 -3394,3394 -1871,0 -3393,-1522 -3393,-3394 V 48550 C 3753,47514 2914,46675 1878,46675 843,46675 3,47514 3,48550 v 26095 c 0,3939 3205,7144 7144,7144 3490,0 6402,-2517 7021,-5830 h 8383 c 849,3668 4182,6307 8064,6176 -694,4929 3205,9282 8192,9113 -693,4930 3205,9282 8192,9113 -1053,7487 7822,11967 13268,7072 l 4000,-3596 c 5078,4246 13100,1066 13531,-5828 5060,1425 9990,-2078 10454,-7194 5628,1359 10869,-3281 10143,-9059 3770,174 7165,-2200 8276,-5794 h 7167 c 619,3313 3531,5830 7021,5830 3939,0 7144,-3205 7144,-7144 v -6263 c 0,-1036 -839,-1875 -1875,-1875 -1035,0 -1875,839 -1875,1875 v 6263 c 0,1871 -1522,3394 -3394,3394 -1871,0 -3393,-1522 -3393,-3394 0,-2979 0,-34470 0,-41345 0,-1871 1522,-3394 3393,-3394 1871,0 3394,1522 3394,3394 v 26095 c -1,1035 839,1875 1875,1875 z M 26279,72898 c 231,-758 667,-1422 1216,-1916 4905,-4408 5313,-5016 6654,-5372 4180,-1135 7324,4038 3962,7265 l -4931,4432 c -3154,2834 -8158,-232 -6902,-4408 z m 9090,13201 c -1567,-1744 -1424,-4437 319,-6005 189,-170 -685,616 4932,-4434 1742,-1567 4440,-1419 6004,319 v 0 c 1315,1463 1573,3760 -6,5691 -273,302 -44,60 -5247,4747 -1743,1567 -4438,1424 -6004,-319 z m 8192,9113 c -1567,-1744 -1424,-4437 319,-6005 5187,-4646 5471,-5206 7099,-5468 1498,-242 2927,339 3838,1353 v 0 c 1559,1733 1433,4429 -319,6004 l -4933,4434 c -1743,1567 -4437,1424 -6004,-319 z m 19389,4740 c -286,306 24,-8 -5192,4692 -1743,1567 -4437,1424 -6004,-319 -1568,-1744 -1424,-4437 319,-6005 5038,-4508 5401,-5160 6994,-5453 45,10 2240,-556 3943,1339 v 0 c 1433,1593 1472,4104 -60,5746 z M 96224,77226 c -1776,-1225 -3880,1053 -2519,2727 1492,1834 1307,4533 -421,6144 -1723,1607 -4424,1607 -6149,1 -1489,-1389 -3822,280 -2990,2138 823,1838 317,4025 -1231,5317 -1836,1532 -4592,1320 -6275,-484 l -472,-506 c -671,-720 -1785,-798 -2551,-180 -765,620 -921,1725 -357,2533 1280,1830 1014,4359 -619,5881 -1646,1534 -4142,1601 -5861,255 3162,-5412 -991,-12231 -7191,-12010 679,-4865 -3185,-9260 -8204,-9103 691,-4917 -3203,-9269 -8190,-9113 330,-2382 -398,-4711 -1973,-6466 v 0 c -2933,-3268 -7995,-3574 -11301,-601 -5123,4616 -4984,4452 -5401,4895 -971,1027 -1622,2257 -1944,3557 H 14287 V 35871 c 15209,-231 16316,556 19098,-790 3168,-1533 9822,-8741 15549,-11376 433,-199 1554,-494 4075,-115 -5944,4209 -9486,9355 -13973,13781 -4409,4761 -987,12697 6563,12658 2280,-12 4474,-857 6170,-2400 l 9298,-8459 c 233,-138 517,-136 748,3 4190,4414 11627,8065 19853,8423 22187,24812 20476,22892 20720,23200 663,886 882,3151 879,3126 -321,3495 -4269,5218 -7047,3304 z"
   id="path3"
   inkscape:connector-curvature="0" />
   </g>
  </g>
  <g
   id="_801357472">
   <g
   id="g10">
    <path
   class="fil1"
   d="m -7247,-82576 c 176,-187 297,-319 0,0 z"
   id="path8"
   inkscape:connector-curvature="0" />
   </g>
  </g>
  <g
   id="_801356288">
  </g>
  <g
   id="_801357184">
  </g>
  <g
   id="_801356000">
  </g>
  <g
   id="_801357760">
  </g>
  <g
   id="_622004528">
  </g>
  <g
   id="_181766128">
  </g>
  <g
   id="_70546432">
  </g>
  <g
   id="_70546336">
  </g>
  <g
   id="_70546144">
  </g>
  <g
   id="_70547392">
  </g>
  <g
   id="_70547008">
  </g>
  <g
   id="_70546880">
  </g>
  <g
   id="_70546656">
  </g>
  <g
   id="_70546752">
  </g>
  <g
   id="_70546688">
  </g>
 </g>
</svg>