<?xml version="1.0" encoding="UTF-8" standalone="no"?>
<!-- Creator: CorelDRAW X6 -->

<?xml-stylesheet href="calculator.css" type="text/css"?><svg
   xmlns:dc="http://purl.org/dc/elements/1.1/"
   xmlns:cc="http://creativecommons.org/ns#"
   xmlns:rdf="http://www.w3.org/1999/02/22-rdf-syntax-ns#"
   xmlns:svg="http://www.w3.org/2000/svg"
   xmlns="http://www.w3.org/2000/svg"
   xmlns:sodipodi="http://sodipodi.sourceforge.net/DTD/sodipodi-0.dtd"
   xmlns:inkscape="http://www.inkscape.org/namespaces/inkscape"
   xml:space="preserve"
   width="128.002"
   height="128.00209"
   version="1.1"
   style="clip-rule:evenodd;fill-rule:evenodd;image-rendering:optimizeQuality;shape-rendering:geometricPrecision;text-rendering:geometricPrecision"
   viewBox="0 0 128002 128002.09"
   id="svg6"
   sodipodi:docname="calculator.svg"
   inkscape:version="0.92.3 (2405546, 2018-03-11)"><metadata
   id="metadata12"><rdf:RDF><cc:Work
       rdf:about=""><dc:format>image/svg+xml</dc:format><dc:type
         rdf:resource="http://purl.org/dc/dcmitype/StillImage" /><dc:title></dc:title></cc:Work></rdf:RDF></metadata><defs
   id="defs10" /><sodipodi:namedview
   pagecolor="#ffffff"
   bordercolor="#666666"
   borderopacity="1"
   objecttolerance="10"
   gridtolerance="10"
   guidetolerance="10"
   inkscape:pageopacity="0"
   inkscape:pageshadow="2"
   inkscape:window-width="640"
   inkscape:window-height="480"
   id="namedview8"
   showgrid="false"
   fit-margin-top="0"
   fit-margin-left="0"
   fit-margin-right="0"
   fit-margin-bottom="0"
   inkscape:zoom="1.84375"
   inkscape:cx="64"
   inkscape:cy="64.001078"
   inkscape:window-x="0"
   inkscape:window-y="0"
   inkscape:window-maximized="0"
   inkscape:current-layer="svg6" />
 <g
   id="Слой_x0020_1"
   transform="translate(0,1)">
  <metadata
   id="CorelCorpID_0Corel-Layer" />
  <path
   class="fil0"
   d="M 121716,0 H 99524 c -2566,0 -2568,3961 0,3961 h 22192 c 1312,0 2381,1085 2381,2416 v 94825 c -20814,219 -20473,-482 -21518,582 -352,358 -570,853 -570,1399 v 20432 H 76497 c 258,-710 398,-1476 398,-2276 V 80375 h 14652 c 2566,0 2568,-3961 0,-3961 H 76895 v -8193 h 14652 c 2568,0 2566,-3961 0,-3961 H 76895 v -8191 h 14652 c 2566,0 2567,-3961 0,-3961 H 76701 c -721,-2951 -3339,-5032 -6340,-5032 H 38310 V 6376 c 0,-1331 1067,-2416 2378,-2416 h 51030 c 2569,0 2566,-3961 0,-3961 H 40688 c -3463,0 -6281,2860 -6281,6377 V 47076 H 22981 c -2569,0 -2566,3961 0,3961 h 47380 c 1452,0 2631,1196 2631,2670 v 67632 c 0,961 -502,1806 -1254,2276 -1206,755 2170,245 -65204,396 -1452,0 -2631,-1198 -2631,-2672 V 53707 c 0,-1473 1178,-2670 2631,-2670 h 8641 c 2566,0 2568,-3961 0,-3961 l -8641,1 C 2930,47077 0,50050 0,53707 v 67632 c 0,3657 2930,6633 6534,6633 66863,-143 64027,349 66049,-396 h 31378 c 511,0 1012,-206 1382,-581 l 22067,-22393 c 393,-388 592,-914 592,-1418 V 6378 C 128002,2861 125184,1 121718,1 Z M 106724,12669 H 51202 c -1078,0 -1952,886 -1952,1980 0,1094 874,1980 1952,1980 h 55522 c 1078,0 1951,-886 1951,-1980 0,-1094 -874,-1980 -1951,-1980 z m 10405,63744 h -15876 c -2567,0 -2567,3961 0,3961 h 15876 c 2567,0 2567,-3961 0,-3961 z m 0,-12152 h -15876 c -2567,0 -2567,3961 0,3961 h 15876 c 2567,0 2567,-3961 0,-3961 z m 0,-12152 h -15876 c -2567,0 -2567,3961 0,3961 h 15876 c 2567,0 2567,-3961 0,-3961 z m 0,-12152 h -15876 c -2567,0 -2567,3961 0,3961 h 15876 c 2567,0 2568,-3961 0,-3961 z m 0,-12152 h -15876 c -2567,0 -2567,3961 0,3961 h 15876 c 2567,0 2568,-3961 0,-3961 z M 91545,39957 H 45277 c -1078,0 -1952,886 -1952,1980 0,1094 874,1980 1952,1980 h 46268 c 2567,0 2567,-3961 0,-3961 z m 0,-12152 H 45277 c -2567,0 -2567,3961 0,3961 h 46268 c 2567,0 2567,-3961 0,-3961 z m -48856,73880 h -9052 c -2321,0 -4208,1916 -4208,4270 v 8015 c 0,2355 1888,4270 4208,4270 h 9052 c 2320,0 4208,-1916 4208,-4270 v -8015 c 0,-2354 -1888,-4270 -4208,-4270 z m 305,12285 c 0,171 -137,310 -305,310 h -9052 c -168,0 -305,-139 -305,-310 v -8015 c 0,-171 137,-310 305,-310 h 9052 c 168,0 305,139 305,310 z M 20385,101685 h -9052 c -2320,0 -4208,1916 -4208,4270 v 8015 c 0,2355 1888,4270 4208,4270 h 9052 c 2320,0 4208,-1916 4208,-4270 v -8015 c 0,-2354 -1888,-4270 -4208,-4270 z m 305,12285 c 0,171 -137,310 -305,310 h -9052 c -168,0 -305,-139 -305,-310 v -8015 c 0,-171 137,-310 305,-310 h 9052 c 168,0 305,139 305,310 z M 68894,97415 V 87026 c 0,-3300 -2646,-5984 -5897,-5984 h -5674 c -3252,0 -5897,2685 -5897,5984 v 25231 c 0,3300 2645,5984 5897,5984 h 5674 c 3252,0 5897,-2685 5897,-5984 v -6920 c 0,-2605 -3903,-2605 -3903,0 v 6920 c 0,1116 -894,2024 -1994,2024 h -5674 c -1100,0 -1994,-908 -1994,-2023 V 87027 c 0,-1116 895,-2024 1994,-2024 h 5674 c 1100,0 1994,908 1994,2024 v 10389 c 0,2605 3903,2605 3903,0 z M 42689,81042 h -9052 c -2321,0 -4208,1916 -4208,4270 v 8015 c 0,2355 1888,4270 4208,4270 h 9052 c 2320,0 4208,-1916 4208,-4270 v -8015 c 0,-2355 -1888,-4270 -4208,-4270 z m 305,12285 c 0,170 -137,310 -305,310 h -9052 c -168,0 -305,-139 -305,-310 v -8015 c 0,-170 137,-310 305,-310 h 9052 c 168,0 305,139 305,310 z M 20385,81042 h -9052 c -2320,0 -4208,1916 -4208,4270 v 8015 c 0,2355 1888,4270 4208,4270 h 9052 c 2320,0 4208,-1916 4208,-4270 v -8015 c 0,-2355 -1888,-4270 -4208,-4270 z m 305,12285 c 0,170 -137,310 -305,310 h -9052 c -168,0 -305,-139 -305,-310 v -8015 c 0,-170 137,-310 305,-310 h 9052 c 168,0 305,139 305,310 z M 64114,54893 H 11906 c -2636,0 -4781,2176 -4781,4851 v 8025 c 0,2675 2144,4851 4781,4851 h 52208 c 2636,0 4781,-2176 4781,-4851 v -8025 c 0,-2674 -2145,-4851 -4781,-4851 z m 877,12875 c 0,491 -394,890 -877,890 H 11906 c -484,0 -878,-400 -878,-891 v -8025 c 0,-490 394,-890 878,-890 h 52208 c 484,0 878,399 878,890 v 8025 0 z m 40922,53046 v -15650 h 15422 z"
   id="path3"
   inkscape:connector-curvature="0" />
 </g>
</svg>