<?xml version="1.0" encoding="UTF-8" standalone="no"?>
<!-- Creator: CorelDRAW X6 -->

<?xml-stylesheet href="contract.css" type="text/css"?><svg
   xmlns:dc="http://purl.org/dc/elements/1.1/"
   xmlns:cc="http://creativecommons.org/ns#"
   xmlns:rdf="http://www.w3.org/1999/02/22-rdf-syntax-ns#"
   xmlns:svg="http://www.w3.org/2000/svg"
   xmlns="http://www.w3.org/2000/svg"
   xmlns:sodipodi="http://sodipodi.sourceforge.net/DTD/sodipodi-0.dtd"
   xmlns:inkscape="http://www.inkscape.org/namespaces/inkscape"
   xml:space="preserve"
   width="128.03598"
   height="127.857"
   version="1.1"
   style="clip-rule:evenodd;fill-rule:evenodd;image-rendering:optimizeQuality;shape-rendering:geometricPrecision;text-rendering:geometricPrecision"
   viewBox="0 0 128035.98 127857"
   id="svg8"
   sodipodi:docname="contract.svg"
   inkscape:version="0.92.3 (2405546, 2018-03-11)"><metadata
   id="metadata14"><rdf:RDF><cc:Work
       rdf:about=""><dc:format>image/svg+xml</dc:format><dc:type
         rdf:resource="http://purl.org/dc/dcmitype/StillImage" /><dc:title></dc:title></cc:Work></rdf:RDF></metadata><defs
   id="defs12" /><sodipodi:namedview
   pagecolor="#ffffff"
   bordercolor="#666666"
   borderopacity="1"
   objecttolerance="10"
   gridtolerance="10"
   guidetolerance="10"
   inkscape:pageopacity="0"
   inkscape:pageshadow="2"
   inkscape:window-width="640"
   inkscape:window-height="480"
   id="namedview10"
   showgrid="false"
   fit-margin-top="0"
   fit-margin-left="0"
   fit-margin-right="0"
   fit-margin-bottom="0"
   inkscape:zoom="5.2149125"
   inkscape:cx="41.928937"
   inkscape:cy="114.35261"
   inkscape:window-x="153"
   inkscape:window-y="292"
   inkscape:window-maximized="0"
   inkscape:current-layer="svg8" />
 <g
   id="Слой_x0020_1"
   transform="translate(1,-70)">
  <metadata
   id="CorelCorpID_0Corel-Layer" />
  <path
   class="fil0"
   d="M 83885,12811 H 68009 c -2567,0 -2567,3961 0,3961 h 15876 c 2567,0 2568,-3961 0,-3961 z m 25834,37367 -44964,44969 c -22,19 -28,47 -47,66 -169,175 -306,379 -405,601 l -17,36 -9025,21058 c -282,658 -215,1414 179,2013 394,598 1063,958 1779,958 289,0 575,-58 840,-173 l 21057,-9025 36,-17 c 223,-99 426,-236 601,-405 19,-19 47,-26 66,-47 l 44968,-44966 c 9923,-10013 -5141,-24910 -15068,-15068 z m -48452,63521 5703,-13306 7603,7603 -13306,5702 z m 17048,-8006 -9042,-9042 27928,-27925 9040,9040 -27926,27927 v 1 z m 30939,-30941 -9040,-9040 3480,-3482 9042,9042 z m 12513,-12513 -6028,6028 -9031,-9050 6029,-6018 c 6012,-6012 14926,3154 9042,9042 z m -30136,48151 v 11144 c 0,1177 -954,2131 -2131,2131 H 6392 c -1177,0 -2131,-954 -2131,-2131 V 6463 c 0,-1177 954,-2131 2131,-2131 h 83107 c 1177,0 2131,954 2131,2131 v 47960 c 0,2803 4262,2803 4262,0 V 6463 C 95892,2932 93030,70 89499,70 H 6392 C 2861,70 -1,2932 -1,6463 v 115071 c 0,3531 2862,6393 6393,6393 h 83107 c 3531,0 6393,-2862 6393,-6393 v -11143 c 0,-2802 -4261,-2813 -4261,-1 z M 58300,61425 H 12032 c -1078,0 -1952,886 -1952,1980 0,1094 874,1980 1952,1980 h 46268 c 2567,0 2567,-3961 0,-3961 z m 25584,0 H 68008 c -2567,0 -2567,3961 0,3961 h 15876 c 2567,0 2568,-3961 0,-3961 z M 58300,49272 H 12032 c -1078,0 -1952,886 -1952,1980 0,1094 874,1980 1952,1980 h 46268 c 2567,0 2567,-3961 0,-3961 z m 25584,0 H 68008 c -2567,0 -2567,3961 0,3961 h 15876 c 2567,0 2568,-3961 0,-3961 z M 58300,37116 H 12032 c -1078,0 -1952,886 -1952,1980 0,1094 874,1980 1952,1980 h 46268 c 2567,0 2567,-3961 0,-3961 z m 25584,0 H 68008 c -2567,0 -2567,3961 0,3961 h 15876 c 2567,0 2568,-3961 0,-3961 z M 58300,12810 H 12032 c -2567,0 -2567,3961 0,3961 h 46268 c 2567,0 2567,-3961 0,-3961 z m 0,12152 H 12032 c -1078,0 -1952,886 -1952,1980 0,1094 874,1980 1952,1980 h 46268 c 2567,0 2567,-3961 0,-3961 z m 25584,0 H 68008 c -2567,0 -2567,3961 0,3961 h 15876 c 2567,0 2568,-3961 0,-3961 z"
   id="path3"
   inkscape:connector-curvature="0" />
 </g>
 <g
   id="Слой_x0020_1_0"
   transform="translate(1,-70)">
  <metadata
   id="CorelCorpID_1Corel-Layer" />
 </g>
</svg>