<?xml version="1.0" encoding="UTF-8" standalone="no"?>
<!-- Creator: CorelDRAW X6 -->

<?xml-stylesheet href="measuring-tape.css" type="text/css"?><svg
   xmlns:dc="http://purl.org/dc/elements/1.1/"
   xmlns:cc="http://creativecommons.org/ns#"
   xmlns:rdf="http://www.w3.org/1999/02/22-rdf-syntax-ns#"
   xmlns:svg="http://www.w3.org/2000/svg"
   xmlns="http://www.w3.org/2000/svg"
   xmlns:sodipodi="http://sodipodi.sourceforge.net/DTD/sodipodi-0.dtd"
   xmlns:inkscape="http://www.inkscape.org/namespaces/inkscape"
   xml:space="preserve"
   width="127.999"
   height="81.935997"
   version="1.1"
   style="clip-rule:evenodd;fill-rule:evenodd;image-rendering:optimizeQuality;shape-rendering:geometricPrecision;text-rendering:geometricPrecision"
   viewBox="0 0 127999 81935.997"
   id="svg6"
   sodipodi:docname="measuring-tape.svg"
   inkscape:version="0.92.3 (2405546, 2018-03-11)"><metadata
   id="metadata12"><rdf:RDF><cc:Work
       rdf:about=""><dc:format>image/svg+xml</dc:format><dc:type
         rdf:resource="http://purl.org/dc/dcmitype/StillImage" /><dc:title></dc:title></cc:Work></rdf:RDF></metadata><defs
   id="defs10" /><sodipodi:namedview
   pagecolor="#ffffff"
   bordercolor="#666666"
   borderopacity="1"
   objecttolerance="10"
   gridtolerance="10"
   guidetolerance="10"
   inkscape:pageopacity="0"
   inkscape:pageshadow="2"
   inkscape:window-width="640"
   inkscape:window-height="480"
   id="namedview8"
   showgrid="false"
   fit-margin-top="0"
   fit-margin-left="0"
   fit-margin-right="0"
   fit-margin-bottom="0"
   inkscape:zoom="3.6875"
   inkscape:cx="90.074146"
   inkscape:cy="34.63797"
   inkscape:window-x="0"
   inkscape:window-y="0"
   inkscape:window-maximized="0"
   inkscape:current-layer="svg6" />
 <g
   id="Слой_x0020_1"
   transform="translate(0,-23033)">
  <metadata
   id="CorelCorpID_0Corel-Layer" />
  <path
   class="fil0"
   d="m 70044,66819 c 0,-16116 -13084,-29228 -29166,-29228 -16082,0 -29166,13112 -29166,29228 0,16116 13084,29228 29166,29228 16082,0 29166,-13111 29166,-29228 z m 45856,12058 v 4821 H 81757 V 69779 c 4455,-2416 9269,-4370 8672,-10592 -217,-2258 -591,-4517 -1112,-6715 -569,-2399 -4218,-1536 -3649,865 482,2032 828,4120 1028,6208 336,3503 -2432,4609 -4939,5968 v -1602 c 0,-7192 -1869,-13955 -5144,-19832 l 4355,-2732 c 914,1619 1733,3295 2449,5024 943,2278 4408,844 3465,-1435 C 84560,39329 81263,34234 77085,29795 74414,26957 70167,26266 66759,28115 l -3256,1766 C 57020,25557 49240,23033 40880,23033 18338,23033 0,41371 0,63912 v 8540 c 0,2466 3750,2466 3750,0 v -8540 c 0,-20473 16656,-37129 37129,-37129 8143,0 15680,2637 21808,7099 9570,6979 15321,18172 15321,30119 v 4663 32555 H 21827 C 11860,101219 3750,93110 3750,83143 V 80027 C 3750,77561 0,77561 0,80027 v 3116 c 0,12035 9791,21826 21826,21826 h 104298 c 1036,0 1875,-840 1875,-1875 V 78879 c 0,-7967 -12100,-7967 -12100,0 z m -49074,-46534 1720,-933 c 1914,-1038 4302,-646 5807,954 1709,1816 3258,3751 4641,5793 l -4355,2732 c -2171,-3174 -4836,-6090 -7814,-8546 z m 49074,68874 H 81757 V 87447 h 3621 v 7082 c 0,2466 3750,2466 3750,0 v -7082 h 7161 v 4042 c 0,2466 3750,2466 3750,0 v -4042 h 7684 v 7082 c 0,2466 3750,2466 3750,0 v -7082 h 4427 z m 8349,0 h -4599 V 78877 c 0,-3036 4599,-3036 4599,0 z M 62076,66819 c 0,-11713 -9510,-21243 -21199,-21243 -11689,0 -21199,9530 -21199,21243 0,11713 9510,21243 21199,21243 11689,0 21199,-9530 21199,-21243 z M 40877,84312 c -9621,0 -17449,-7847 -17449,-17493 0,-9645 7828,-17493 17449,-17493 9621,0 17449,7847 17449,17493 0,9645 -7828,17493 -17449,17493 z M 15462,66819 c 0,-14048 11401,-25478 25416,-25478 14014,0 25415,11429 25415,25478 0,14048 -11401,25478 -25415,25478 -14014,0 -25416,-11429 -25416,-25478 z"
   id="path3"
   inkscape:connector-curvature="0" />
 </g>
</svg>