<?xml version="1.0" encoding="UTF-8" standalone="no"?>
<!-- Creator: CorelDRAW X6 -->

<?xml-stylesheet href="paint-roller.css" type="text/css"?><svg
   xmlns:dc="http://purl.org/dc/elements/1.1/"
   xmlns:cc="http://creativecommons.org/ns#"
   xmlns:rdf="http://www.w3.org/1999/02/22-rdf-syntax-ns#"
   xmlns:svg="http://www.w3.org/2000/svg"
   xmlns="http://www.w3.org/2000/svg"
   xmlns:sodipodi="http://sodipodi.sourceforge.net/DTD/sodipodi-0.dtd"
   xmlns:inkscape="http://www.inkscape.org/namespaces/inkscape"
   xml:space="preserve"
   width="111.513"
   height="127.999"
   version="1.1"
   style="clip-rule:evenodd;fill-rule:evenodd;image-rendering:optimizeQuality;shape-rendering:geometricPrecision;text-rendering:geometricPrecision"
   viewBox="0 0 111513 127999"
   id="svg6"
   sodipodi:docname="paint-roller.svg"
   inkscape:version="0.92.3 (2405546, 2018-03-11)"><metadata
   id="metadata12"><rdf:RDF><cc:Work
       rdf:about=""><dc:format>image/svg+xml</dc:format><dc:type
         rdf:resource="http://purl.org/dc/dcmitype/StillImage" /><dc:title></dc:title></cc:Work></rdf:RDF></metadata><defs
   id="defs10" /><sodipodi:namedview
   pagecolor="#ffffff"
   bordercolor="#666666"
   borderopacity="1"
   objecttolerance="10"
   gridtolerance="10"
   guidetolerance="10"
   inkscape:pageopacity="0"
   inkscape:pageshadow="2"
   inkscape:window-width="640"
   inkscape:window-height="480"
   id="namedview8"
   showgrid="false"
   fit-margin-top="0"
   fit-margin-left="0"
   fit-margin-right="0"
   fit-margin-bottom="0"
   inkscape:zoom="3.6875"
   inkscape:cx="83.818393"
   inkscape:cy="62.440687"
   inkscape:window-x="0"
   inkscape:window-y="0"
   inkscape:window-maximized="0"
   inkscape:current-layer="svg6" />
 <g
   id="Слой_x0020_1"
   transform="translate(-8243)">
  <metadata
   id="CorelCorpID_0Corel-Layer" />
  <path
   class="fil0"
   d="M 113128,0 H 27394 c -3655,0 -6629,2974 -6629,6629 v 7291 h -3142 c -5172,0 -9380,4208 -9380,9380 v 19186 c 0,3872 2433,7396 6053,8770 l 50554,19177 c 1914,726 3201,2590 3201,4637 v 12877 h -5274 c -2471,0 -4481,2010 -4481,4480 v 31092 c 0,2470 2010,4480 4481,4480 h 14967 c 2471,0 4481,-2010 4481,-4480 V 92427 c 0,-2471 -2010,-4480 -4481,-4480 H 72470 V 75070 c 0,-3873 -2432,-7396 -6053,-8770 L 15863,47123 c -1915,-727 -3201,-2590 -3201,-4638 V 23300 c 0,-2735 2225,-4960 4960,-4960 h 3142 v 7292 c 0,3656 2974,6629 6629,6629 1221,0 2210,-989 2210,-2210 0,-1221 -989,-2210 -2210,-2210 -1219,0 -2210,-991 -2210,-2210 V 6629 c 0,-1219 991,-2210 2210,-2210 h 85734 c 1218,0 2210,991 2210,2210 v 19002 c 0,1219 -991,2210 -2210,2210 H 46300 c -1221,0 -2210,989 -2210,2210 0,1221 989,2210 2210,2210 h 66827 c 3655,0 6629,-2974 6629,-6629 V 6630 C 119756,2975 116782,1 113127,1 Z M 40356,30053 c 0,-1221 -989,-2210 -2210,-2210 -1220,0 -2210,989 -2210,2210 0,1220 989,2210 2210,2210 1221,0 2210,-989 2210,-2210 z m 32115,86417 c 0,-1221 -989,-2210 -2210,-2210 -1220,0 -2210,989 -2210,2210 0,1220 989,2210 2210,2210 1221,0 2210,-989 2210,-2210 z m 5273,-24103 c 33,0 61,27 61,61 v 31092 c 0,33 -27,61 -61,61 H 62777 c -34,0 -61,-27 -61,-61 V 92428 c 0,-34 27,-61 61,-61 z"
   id="path3"
   inkscape:connector-curvature="0" />
 </g>
</svg>