<?xml version="1.0" encoding="UTF-8" standalone="no"?>
<!-- Creator: CorelDRAW X6 -->

<?xml-stylesheet href="smartphone.css" type="text/css"?><svg
   xmlns:dc="http://purl.org/dc/elements/1.1/"
   xmlns:cc="http://creativecommons.org/ns#"
   xmlns:rdf="http://www.w3.org/1999/02/22-rdf-syntax-ns#"
   xmlns:svg="http://www.w3.org/2000/svg"
   xmlns="http://www.w3.org/2000/svg"
   xmlns:sodipodi="http://sodipodi.sourceforge.net/DTD/sodipodi-0.dtd"
   xmlns:inkscape="http://www.inkscape.org/namespaces/inkscape"
   xml:space="preserve"
   width="110.933"
   height="127.999"
   version="1.1"
   style="clip-rule:evenodd;fill-rule:evenodd;image-rendering:optimizeQuality;shape-rendering:geometricPrecision;text-rendering:geometricPrecision"
   viewBox="0 0 110933 127999"
   id="svg32"
   sodipodi:docname="smartphone.svg"
   inkscape:version="0.92.3 (2405546, 2018-03-11)"><metadata
   id="metadata38"><rdf:RDF><cc:Work
       rdf:about=""><dc:format>image/svg+xml</dc:format><dc:type
         rdf:resource="http://purl.org/dc/dcmitype/StillImage" /><dc:title></dc:title></cc:Work></rdf:RDF></metadata><defs
   id="defs36" /><sodipodi:namedview
   pagecolor="#ffffff"
   bordercolor="#666666"
   borderopacity="1"
   objecttolerance="10"
   gridtolerance="10"
   guidetolerance="10"
   inkscape:pageopacity="0"
   inkscape:pageshadow="2"
   inkscape:window-width="640"
   inkscape:window-height="480"
   id="namedview34"
   showgrid="false"
   fit-margin-top="0"
   fit-margin-left="0"
   fit-margin-right="0"
   fit-margin-bottom="0"
   inkscape:zoom="3.6875"
   inkscape:cx="70.30573"
   inkscape:cy="68.843444"
   inkscape:window-x="0"
   inkscape:window-y="0"
   inkscape:window-maximized="0"
   inkscape:current-layer="svg32" />
 <g
   id="Слой_x0020_1"
   transform="translate(-8534)">
  <metadata
   id="CorelCorpID_0Corel-Layer" />
  <g
   id="_620981504">
   <path
   class="fil0"
   d="m 42667,104533 c -4706,0 -8533,3827 -8533,8533 0,4706 3827,8533 8533,8533 4706,0 8533,-3827 8533,-8533 0,-4706 -3827,-8533 -8533,-8533 z m 0,12800 c -2353,0 -4267,-1913 -4267,-4267 0,-2353 1914,-4266 4267,-4266 2353,0 4267,1913 4267,4266 0,2353 -1914,4267 -4267,4267 z"
   id="path3"
   inkscape:connector-curvature="0" />
   <path
   class="fil0"
   d="m 36267,10667 h 8533 c 1178,0 2133,-954 2133,-2133 0,-1180 -956,-2133 -2133,-2133 h -8533 c -1178,0 -2133,954 -2133,2133 0,1180 956,2133 2133,2133 z"
   id="path5"
   inkscape:connector-curvature="0" />
   <path
   class="fil0"
   d="m 51200,10667 h 2133 c 1178,0 2133,-954 2133,-2133 0,-1180 -956,-2133 -2133,-2133 h -2133 c -1178,0 -2133,954 -2133,2133 0,1180 956,2133 2133,2133 z"
   id="path7"
   inkscape:connector-curvature="0" />
   <path
   class="fil0"
   d="M 119467,25600 H 81067 V 9397 C 81067,4217 76852,0 71670,0 H 17931 C 12749,0 8534,4218 8534,9397 v 109203 c 0,5182 4215,9399 9397,9399 h 53736 c 5184,0 9399,-4218 9399,-9397 V 70399 h 38400 V 25599 Z M 17931,4267 h 53736 c 2831,0 5133,2302 5133,5131 v 3403 H 12800 V 9398 c 0,-2829 2302,-5131 5131,-5131 z M 71670,123734 H 17931 c -2829,0 -5131,-2302 -5131,-5131 v -16203 h 64000 v 16203 c 0,2829 -2302,5131 -5131,5131 z M 76801,98134 H 12801 V 17067 h 64000 v 8533 H 38401 v 44800 h 8533 V 85333 L 66844,70400 h 9956 V 98133 Z M 115201,66134 H 81068 65424 L 51201,76801 V 66134 H 42668 V 29867 h 38400 34133 z"
   id="path9"
   inkscape:connector-curvature="0" />
   <path
   class="fil0"
   d="m 53333,44800 h 21334 c 1178,0 2133,-954 2133,-2133 0,-1180 -956,-2133 -2133,-2133 H 53333 c -1178,0 -2133,954 -2133,2133 0,1180 956,2133 2133,2133 z"
   id="path11"
   inkscape:connector-curvature="0" />
   <path
   class="fil0"
   d="m 51200,53333 c 0,1180 956,2133 2133,2133 h 51200 c 1178,0 2133,-954 2133,-2133 0,-1180 -956,-2133 -2133,-2133 H 53333 c -1178,0 -2133,954 -2133,2133 z"
   id="path13"
   inkscape:connector-curvature="0" />
  </g>
  <g
   id="_620982304">
  </g>
  <g
   id="_620979776">
  </g>
  <g
   id="_620978720">
  </g>
  <g
   id="_620980224">
  </g>
  <g
   id="_620978624">
  </g>
  <g
   id="_620980192">
  </g>
  <g
   id="_620979392">
  </g>
  <g
   id="_620978528">
  </g>
  <g
   id="_620978496">
  </g>
  <g
   id="_620979744">
  </g>
  <g
   id="_620977376">
  </g>
  <g
   id="_620978080">
  </g>
  <g
   id="_620978048">
  </g>
  <g
   id="_620978240">
  </g>
  <g
   id="_620977792">
  </g>
 </g>
</svg>