<?xml version="1.0" encoding="UTF-8" standalone="no"?>
<!-- Generator: Adobe Illustrator 19.0.0, SVG Export Plug-In . SVG Version: 6.00 Build 0)  -->

<svg
   xmlns:dc="http://purl.org/dc/elements/1.1/"
   xmlns:cc="http://creativecommons.org/ns#"
   xmlns:rdf="http://www.w3.org/1999/02/22-rdf-syntax-ns#"
   xmlns:svg="http://www.w3.org/2000/svg"
   xmlns="http://www.w3.org/2000/svg"
   xmlns:sodipodi="http://sodipodi.sourceforge.net/DTD/sodipodi-0.dtd"
   xmlns:inkscape="http://www.inkscape.org/namespaces/inkscape"
   version="1.1"
   id="Capa_1"
   x="0px"
   y="0px"
   viewBox="0 0 504.1606 503.60598"
   xml:space="preserve"
   sodipodi:docname="write-letter.svg"
   width="504.16061"
   height="503.60599"
   inkscape:version="0.92.3 (2405546, 2018-03-11)"><metadata
   id="metadata53"><rdf:RDF><cc:Work
       rdf:about=""><dc:format>image/svg+xml</dc:format><dc:type
         rdf:resource="http://purl.org/dc/dcmitype/StillImage" /><dc:title></dc:title></cc:Work></rdf:RDF></metadata><defs
   id="defs51" /><sodipodi:namedview
   pagecolor="#ffffff"
   bordercolor="#666666"
   borderopacity="1"
   objecttolerance="10"
   gridtolerance="10"
   guidetolerance="10"
   inkscape:pageopacity="0"
   inkscape:pageshadow="2"
   inkscape:window-width="640"
   inkscape:window-height="480"
   id="namedview49"
   showgrid="false"
   fit-margin-top="0"
   fit-margin-left="0"
   fit-margin-right="0"
   fit-margin-bottom="0"
   inkscape:zoom="0.93620885"
   inkscape:cx="396.36934"
   inkscape:cy="177.22397"
   inkscape:window-x="0"
   inkscape:window-y="0"
   inkscape:window-maximized="0"
   inkscape:current-layer="Capa_1" />
<g
   id="g16"
   transform="translate(0,-0.277)">
	<g
   id="g14">
		<g
   id="g12">
			<path
   d="m 344.131,268.867 c -4.636,0 -8.393,3.758 -8.393,8.393 v 201.443 c 0,4.636 -3.758,8.393 -8.393,8.393 H 25.18 c -4.636,0 -8.393,-3.758 -8.393,-8.393 V 25.457 c 0,-4.636 3.758,-8.393 8.393,-8.393 h 302.164 c 4.636,0 8.393,3.758 8.393,8.393 v 50.361 c 0,4.636 3.758,8.393 8.393,8.393 4.635,0 8.393,-3.758 8.393,-8.393 V 25.457 c 0,-13.907 -11.274,-25.18 -25.18,-25.18 H 25.18 C 11.274,0.277 0,11.551 0,25.457 v 453.246 c 0,13.907 11.274,25.18 25.18,25.18 h 302.164 c 13.907,0 25.18,-11.274 25.18,-25.18 V 277.261 c 10e-4,-4.636 -3.757,-8.394 -8.393,-8.394 z"
   id="path2"
   inkscape:connector-curvature="0" />
			<path
   d="m 491.869,28.793 c -16.339,-16.338 -42.81,-16.396 -59.22,-0.13 l 0.017,-0.008 -55.262,55.254 -288.971,288.987 c -0.084,0.076 -0.109,0.185 -0.185,0.26 -0.664,0.691 -1.203,1.492 -1.595,2.367 l -0.067,0.143 -35.546,82.944 c -1.112,2.593 -0.846,5.571 0.707,7.927 1.553,2.356 4.185,3.773 7.007,3.774 1.137,0.002 2.263,-0.229 3.307,-0.68 l 82.936,-35.546 0.143,-0.067 c 0.877,-0.388 1.678,-0.928 2.367,-1.595 0.076,-0.076 0.185,-0.101 0.26,-0.185 L 436.745,143.277 491.999,88.015 c 16.266,-16.411 16.208,-42.883 -0.13,-59.222 z M 74.702,445.969 97.163,393.56 l 29.948,29.948 z m 67.147,-31.534 -35.613,-35.613 277.11,-277.101 35.605,35.605 z M 430.819,125.457 395.214,89.852 408.921,76.137 444.534,111.75 Z M 480.147,76.179 480.105,76.171 456.36,99.916 420.789,64.269 444.534,40.566 c 6.362,-6.362 15.634,-8.846 24.324,-6.518 8.69,2.329 15.478,9.116 17.807,17.807 2.328,8.69 -0.156,17.962 -6.518,24.324 z"
   id="path4"
   inkscape:connector-curvature="0" />
			<path
   d="M 276.984,75.818 H 75.541 c -4.636,0 -8.393,3.758 -8.393,8.393 0,4.635 3.758,8.393 8.393,8.393 h 201.443 c 4.636,0 8.393,-3.758 8.393,-8.393 0,-4.635 -3.758,-8.393 -8.393,-8.393 z"
   id="path6"
   inkscape:connector-curvature="0" />
			<path
   d="m 285.377,134.572 c 0,-4.636 -3.758,-8.393 -8.393,-8.393 H 75.541 c -4.636,0 -8.393,3.758 -8.393,8.393 0,4.635 3.758,8.393 8.393,8.393 h 201.443 c 4.635,0.001 8.393,-3.757 8.393,-8.393 z"
   id="path8"
   inkscape:connector-curvature="0" />
			<path
   d="m 75.541,176.539 c -4.636,0 -8.393,3.758 -8.393,8.393 0,4.635 3.758,8.393 8.393,8.393 h 151.082 c 4.636,0 8.393,-3.758 8.393,-8.393 0,-4.635 -3.758,-8.393 -8.393,-8.393 z"
   id="path10"
   inkscape:connector-curvature="0" />
		</g>
	</g>
</g>
<g
   id="g18"
   transform="translate(0,-0.277)">
</g>
<g
   id="g20"
   transform="translate(0,-0.277)">
</g>
<g
   id="g22"
   transform="translate(0,-0.277)">
</g>
<g
   id="g24"
   transform="translate(0,-0.277)">
</g>
<g
   id="g26"
   transform="translate(0,-0.277)">
</g>
<g
   id="g28"
   transform="translate(0,-0.277)">
</g>
<g
   id="g30"
   transform="translate(0,-0.277)">
</g>
<g
   id="g32"
   transform="translate(0,-0.277)">
</g>
<g
   id="g34"
   transform="translate(0,-0.277)">
</g>
<g
   id="g36"
   transform="translate(0,-0.277)">
</g>
<g
   id="g38"
   transform="translate(0,-0.277)">
</g>
<g
   id="g40"
   transform="translate(0,-0.277)">
</g>
<g
   id="g42"
   transform="translate(0,-0.277)">
</g>
<g
   id="g44"
   transform="translate(0,-0.277)">
</g>
<g
   id="g46"
   transform="translate(0,-0.277)">
</g>
</svg>