<?xml version="1.0" encoding="UTF-8" standalone="no"?>
<!-- Creator: CorelDRAW X6 -->

<?xml-stylesheet href="apartments.css" type="text/css"?><svg
   xmlns:dc="http://purl.org/dc/elements/1.1/"
   xmlns:cc="http://creativecommons.org/ns#"
   xmlns:rdf="http://www.w3.org/1999/02/22-rdf-syntax-ns#"
   xmlns:svg="http://www.w3.org/2000/svg"
   xmlns="http://www.w3.org/2000/svg"
   xmlns:sodipodi="http://sodipodi.sourceforge.net/DTD/sodipodi-0.dtd"
   xmlns:inkscape="http://www.inkscape.org/namespaces/inkscape"
   xml:space="preserve"
   width="127.999"
   height="127.999"
   version="1.1"
   style="clip-rule:evenodd;fill-rule:evenodd;image-rendering:optimizeQuality;shape-rendering:geometricPrecision;text-rendering:geometricPrecision"
   viewBox="0 0 127999 127999"
   id="svg21"
   sodipodi:docname="apartments.svg"
   inkscape:version="0.92.3 (2405546, 2018-03-11)"><metadata
   id="metadata27"><rdf:RDF><cc:Work
       rdf:about=""><dc:format>image/svg+xml</dc:format><dc:type
         rdf:resource="http://purl.org/dc/dcmitype/StillImage" /><dc:title></dc:title></cc:Work></rdf:RDF></metadata><defs
   id="defs25" /><sodipodi:namedview
   pagecolor="#ffffff"
   bordercolor="#666666"
   borderopacity="1"
   objecttolerance="10"
   gridtolerance="10"
   guidetolerance="10"
   inkscape:pageopacity="0"
   inkscape:pageshadow="2"
   inkscape:window-width="640"
   inkscape:window-height="480"
   id="namedview23"
   showgrid="false"
   fit-margin-top="0"
   fit-margin-left="0"
   fit-margin-right="0"
   fit-margin-bottom="0"
   inkscape:zoom="1.84375"
   inkscape:cx="63.999"
   inkscape:cy="63.999"
   inkscape:window-x="0"
   inkscape:window-y="0"
   inkscape:window-maximized="0"
   inkscape:current-layer="svg21" />
 <g
   id="Слой_x0020_1"
   transform="translate(-1)">
  <metadata
   id="CorelCorpID_0Corel-Layer" />
  <path
   class="fil0"
   d="m 125687,123373 h -1169 c 257,-724 398,-1503 398,-2314 0,-1715 -624,-3332 -1727,-4580 122,-519 185,-1052 185,-1587 0,-3015 -1934,-5587 -4626,-6542 V 26987 c 0,-1278 -1036,-2313 -2313,-2313 H 81736 V 2313 C 81736,1035 80700,0 79423,0 H 11568 C 10291,0 9255,1035 9255,2313 v 106037 c -2692,955 -4627,3526 -4627,6542 0,535 63,1069 185,1587 -1103,1249 -1728,2865 -1728,4580 0,811 141,1590 398,2314 H 2314 c -1278,0 -2313,1035 -2313,2313 0,1278 1036,2313 2313,2313 h 123373 c 1278,0 2313,-1036 2313,-2313 0,-1277 -1036,-2313 -2313,-2313 z M 68627,97156 c 1278,0 2313,-1035 2313,-2313 v -3084 c 0,-1278 -1036,-2313 -2313,-2313 -1277,0 -2313,1035 -2313,2313 v 3084 c 0,1278 1036,2313 2313,2313 z m -9253,0 c 1277,0 2313,-1035 2313,-2313 v -3084 c 0,-1278 -1036,-2313 -2313,-2313 -1278,0 -2313,1035 -2313,2313 v 3084 c 0,1278 1036,2313 2313,2313 z m -9253,0 c 1278,0 2313,-1035 2313,-2313 v -3084 c 0,-1278 -1036,-2313 -2313,-2313 -1278,0 -2313,1035 -2313,2313 v 3084 c 0,1278 1036,2313 2313,2313 z m -9253,0 c 1278,0 2313,-1035 2313,-2313 v -3084 c 0,-1278 -1036,-2313 -2313,-2313 -1278,0 -2313,1035 -2313,2313 v 3084 c 0,1278 1036,2313 2313,2313 z m -9253,0 c 1277,0 2313,-1035 2313,-2313 v -3084 c 0,-1278 -1036,-2313 -2313,-2313 -1278,0 -2313,1035 -2313,2313 v 3084 c 0,1278 1036,2313 2313,2313 z m -9253,0 c 1277,0 2313,-1035 2313,-2313 v -3084 c 0,-1278 -1036,-2313 -2313,-2313 -1278,0 -2313,1035 -2313,2313 v 3084 c 0,1278 1036,2313 2313,2313 z M 68627,81734 c 1278,0 2313,-1035 2313,-2313 v -3084 c 0,-1278 -1036,-2313 -2313,-2313 -1277,0 -2313,1035 -2313,2313 v 3084 c 0,1278 1036,2313 2313,2313 z m -9253,0 c 1277,0 2313,-1035 2313,-2313 v -3084 c 0,-1278 -1036,-2313 -2313,-2313 -1278,0 -2313,1035 -2313,2313 v 3084 c 0,1278 1036,2313 2313,2313 z m -9253,0 c 1278,0 2313,-1035 2313,-2313 v -3084 c 0,-1278 -1036,-2313 -2313,-2313 -1278,0 -2313,1035 -2313,2313 v 3084 c 0,1278 1036,2313 2313,2313 z m -9253,0 c 1278,0 2313,-1035 2313,-2313 v -3084 c 0,-1278 -1036,-2313 -2313,-2313 -1278,0 -2313,1035 -2313,2313 v 3084 c 0,1278 1036,2313 2313,2313 z m -9253,0 c 1277,0 2313,-1035 2313,-2313 v -3084 c 0,-1278 -1036,-2313 -2313,-2313 -1278,0 -2313,1035 -2313,2313 v 3084 c 0,1278 1036,2313 2313,2313 z m -9253,0 c 1277,0 2313,-1035 2313,-2313 v -3084 c 0,-1278 -1036,-2313 -2313,-2313 -1278,0 -2313,1035 -2313,2313 v 3084 c 0,1278 1036,2313 2313,2313 z M 68627,66312 c 1278,0 2313,-1035 2313,-2313 v -3084 c 0,-1278 -1036,-2313 -2313,-2313 -1277,0 -2313,1035 -2313,2313 v 3084 c 0,1278 1036,2313 2313,2313 z m -9253,0 c 1277,0 2313,-1035 2313,-2313 v -3084 c 0,-1278 -1036,-2313 -2313,-2313 -1278,0 -2313,1035 -2313,2313 v 3084 c 0,1278 1036,2313 2313,2313 z m -9253,0 c 1278,0 2313,-1035 2313,-2313 v -3084 c 0,-1278 -1036,-2313 -2313,-2313 -1278,0 -2313,1035 -2313,2313 v 3084 c 0,1278 1036,2313 2313,2313 z m -9253,0 c 1278,0 2313,-1035 2313,-2313 v -3084 c 0,-1278 -1036,-2313 -2313,-2313 -1278,0 -2313,1035 -2313,2313 v 3084 c 0,1278 1036,2313 2313,2313 z m -9253,0 c 1277,0 2313,-1035 2313,-2313 v -3084 c 0,-1278 -1036,-2313 -2313,-2313 -1278,0 -2313,1035 -2313,2313 v 3084 c 0,1278 1036,2313 2313,2313 z m -9253,0 c 1277,0 2313,-1035 2313,-2313 v -3084 c 0,-1278 -1036,-2313 -2313,-2313 -1278,0 -2313,1035 -2313,2313 v 3084 c 0,1278 1036,2313 2313,2313 z M 68627,50890 c 1278,0 2313,-1035 2313,-2313 v -3084 c 0,-1278 -1036,-2313 -2313,-2313 -1277,0 -2313,1035 -2313,2313 v 3084 c 0,1278 1036,2313 2313,2313 z m -9253,0 c 1277,0 2313,-1035 2313,-2313 v -3084 c 0,-1278 -1036,-2313 -2313,-2313 -1278,0 -2313,1035 -2313,2313 v 3084 c 0,1278 1036,2313 2313,2313 z m -9253,0 c 1278,0 2313,-1035 2313,-2313 v -3084 c 0,-1278 -1036,-2313 -2313,-2313 -1278,0 -2313,1035 -2313,2313 v 3084 c 0,1278 1036,2313 2313,2313 z m -9253,0 c 1278,0 2313,-1035 2313,-2313 v -3084 c 0,-1278 -1036,-2313 -2313,-2313 -1278,0 -2313,1035 -2313,2313 v 3084 c 0,1278 1036,2313 2313,2313 z m -9253,0 c 1277,0 2313,-1035 2313,-2313 v -3084 c 0,-1278 -1036,-2313 -2313,-2313 -1278,0 -2313,1035 -2313,2313 v 3084 c 0,1278 1036,2313 2313,2313 z m -9253,0 c 1277,0 2313,-1035 2313,-2313 v -3084 c 0,-1278 -1036,-2313 -2313,-2313 -1278,0 -2313,1035 -2313,2313 v 3084 c 0,1278 1036,2313 2313,2313 z M 68627,35468 c 1278,0 2313,-1035 2313,-2313 v -3084 c 0,-1278 -1036,-2313 -2313,-2313 -1277,0 -2313,1035 -2313,2313 v 3084 c 0,1278 1036,2313 2313,2313 z m -9253,0 c 1277,0 2313,-1035 2313,-2313 v -3084 c 0,-1278 -1036,-2313 -2313,-2313 -1278,0 -2313,1035 -2313,2313 v 3084 c 0,1278 1036,2313 2313,2313 z m -9253,0 c 1278,0 2313,-1035 2313,-2313 v -3084 c 0,-1278 -1036,-2313 -2313,-2313 -1278,0 -2313,1035 -2313,2313 v 3084 c 0,1278 1036,2313 2313,2313 z m -9253,0 c 1278,0 2313,-1035 2313,-2313 v -3084 c 0,-1278 -1036,-2313 -2313,-2313 -1278,0 -2313,1035 -2313,2313 v 3084 c 0,1278 1036,2313 2313,2313 z m -9253,0 c 1277,0 2313,-1035 2313,-2313 v -3084 c 0,-1278 -1036,-2313 -2313,-2313 -1278,0 -2313,1035 -2313,2313 v 3084 c 0,1278 1036,2313 2313,2313 z m -9253,0 c 1277,0 2313,-1035 2313,-2313 v -3084 c 0,-1278 -1036,-2313 -2313,-2313 -1278,0 -2313,1035 -2313,2313 v 3084 c 0,1278 1036,2313 2313,2313 z M 68627,20046 c 1278,0 2313,-1035 2313,-2313 v -3084 c 0,-1278 -1036,-2313 -2313,-2313 -1278,0 -2313,1035 -2313,2313 v 3084 c 0,1278 1036,2313 2313,2313 z m -9253,0 c 1277,0 2313,-1035 2313,-2313 v -3084 c 0,-1278 -1036,-2313 -2313,-2313 -1278,0 -2313,1035 -2313,2313 v 3084 c 0,1278 1036,2313 2313,2313 z m -9253,0 c 1278,0 2313,-1035 2313,-2313 v -3084 c 0,-1278 -1036,-2313 -2313,-2313 -1278,0 -2313,1035 -2313,2313 v 3084 c 0,1278 1036,2313 2313,2313 z m -9253,0 c 1278,0 2313,-1035 2313,-2313 v -3084 c 0,-1278 -1036,-2313 -2313,-2313 -1278,0 -2313,1035 -2313,2313 v 3084 c 0,1278 1036,2313 2313,2313 z m -9253,0 c 1277,0 2313,-1035 2313,-2313 v -3084 c 0,-1278 -1036,-2313 -2313,-2313 -1278,0 -2313,1035 -2313,2313 v 3084 c 0,1278 1036,2313 2313,2313 z m -9253,0 c 1277,0 2313,-1035 2313,-2313 v -3084 c 0,-1278 -1036,-2313 -2313,-2313 -1278,0 -2313,1035 -2313,2313 v 3084 c 0,1278 1036,2313 2313,2313 z m 66313,83277 h 18506 c 1278,0 2313,-1035 2313,-2313 0,-1278 -1036,-2313 -2313,-2313 H 88675 c -1278,0 -2313,1036 -2313,2313 0,1278 1036,2313 2313,2313 z m 0,-12337 h 18506 c 1278,0 2313,-1035 2313,-2313 0,-1278 -1036,-2313 -2313,-2313 H 88675 c -1278,0 -2313,1035 -2313,2313 0,1278 1036,2313 2313,2313 z m 0,-12337 h 18506 c 1278,0 2313,-1035 2313,-2313 0,-1278 -1036,-2313 -2313,-2313 H 88675 c -1278,0 -2313,1035 -2313,2313 0,1278 1036,2313 2313,2313 z m 0,-12337 h 18506 c 1278,0 2313,-1035 2313,-2313 0,-1278 -1036,-2313 -2313,-2313 H 88675 c -1278,0 -2313,1035 -2313,2313 0,1278 1036,2313 2313,2313 z m 0,-12337 h 18506 c 1278,0 2313,-1035 2313,-2313 0,-1278 -1036,-2313 -2313,-2313 H 88675 c -1278,0 -2313,1035 -2313,2313 0,1278 1036,2313 2313,2313 z m 0,-12337 h 18506 c 1278,0 2313,-1035 2313,-2313 0,-1278 -1036,-2313 -2313,-2313 H 88675 c -1278,0 -2313,1035 -2313,2313 0,1278 1036,2313 2313,2313 z M 81735,29301 h 32386 v 79050 c -263,94 -521,202 -771,327 -952,-475 -2005,-726 -3084,-726 -1079,0 -2133,252 -3084,726 -952,-475 -2005,-726 -3084,-726 -1079,0 -2133,252 -3084,726 -952,-475 -2005,-726 -3084,-726 -1079,0 -2133,252 -3084,726 -951,-475 -2005,-726 -3084,-726 -1079,0 -2133,252 -3084,726 -952,-475 -2005,-726 -3084,-726 -1079,0 -2133,252 -3084,726 -251,-125 -508,-233 -771,-327 V 29301 h -1 z M 13880,4626 h 63229 v 22361 81364 c -263,94 -521,202 -771,327 -952,-475 -2005,-726 -3084,-726 -796,0 -1577,138 -2313,399 v -1172 c 0,-1278 -1036,-2313 -2313,-2313 -1278,0 -2313,1036 -2313,2313 v 816 c -808,90 -1590,322 -2313,682 -723,-361 -1505,-592 -2313,-682 v -816 c 0,-1278 -1036,-2313 -2313,-2313 -1277,0 -2313,1036 -2313,2313 v 1171 c -737,-261 -1518,-399 -2313,-399 -795,0 -1577,138 -2313,399 v -1171 c 0,-1278 -1036,-2313 -2313,-2313 -1277,0 -2313,1036 -2313,2313 v 816 c -808,90 -1590,322 -2313,682 -723,-361 -1505,-592 -2313,-682 v -816 c 0,-1278 -1036,-2313 -2313,-2313 -1278,0 -2313,1036 -2313,2313 v 1171 c -737,-261 -1518,-399 -2313,-399 -795,0 -1576,138 -2313,399 v -1171 c 0,-1278 -1036,-2313 -2313,-2313 -1278,0 -2313,1036 -2313,2313 v 816 c -808,90 -1590,322 -2313,682 -723,-361 -1505,-592 -2313,-682 v -816 c 0,-1278 -1035,-2313 -2313,-2313 -1278,0 -2313,1036 -2313,2313 v 1171 c -737,-261 -1518,-399 -2313,-399 -1079,0 -2133,252 -3084,726 -251,-125 -508,-233 -771,-327 V 4625 Z m 104102,118747 c -4,0 -8,1 -12,1 H 10037 c -4,0 -8,-1 -12,-1 -1276,0 -2313,-1037 -2313,-2313 0,-790 401,-1519 1073,-1949 1035,-662 1372,-2017 768,-3087 -198,-351 -298,-732 -298,-1132 0,-1276 1037,-2313 2313,-2313 726,0 1238,323 1540,594 879,789 2210,789 3089,0 302,-271 814,-594 1540,-594 726,0 1238,323 1540,594 879,789 2211,789 3090,0 302,-271 814,-594 1540,-594 726,0 1238,323 1540,594 879,789 2210,789 3089,0 302,-271 814,-594 1540,-594 725,0 1238,323 1540,594 879,789 2210,789 3089,0 302,-271 814,-594 1540,-594 725,0 1238,323 1540,594 879,789 2210,789 3089,0 302,-271 814,-594 1540,-594 725,0 1238,323 1540,594 879,789 2210,789 3089,0 302,-271 814,-594 1540,-594 726,0 1238,323 1540,594 879,789 2210,789 3089,0 302,-271 814,-594 1540,-594 726,0 1238,323 1540,594 879,789 2211,789 3089,0 302,-271 814,-594 1540,-594 726,0 1238,323 1540,594 879,789 2211,789 3090,0 302,-271 814,-594 1540,-594 725,0 1238,323 1540,594 879,789 2210,789 3089,0 302,-271 814,-594 1540,-594 725,0 1238,323 1540,594 879,789 2210,789 3089,0 302,-271 814,-594 1540,-594 725,0 1238,323 1540,594 879,789 2210,789 3089,0 302,-271 814,-594 1540,-594 725,0 1238,323 1540,594 879,789 2210,789 3089,0 302,-271 814,-594 1540,-594 726,0 1238,323 1540,594 879,789 2210,789 3089,0 302,-271 814,-594 1540,-594 726,0 1238,323 1540,594 879,789 2211,789 3089,0 302,-271 814,-594 1540,-594 726,0 1238,323 1540,594 879,789 2211,789 3090,0 302,-271 814,-594 1540,-594 725,0 1238,323 1540,594 879,789 2210,789 3089,0 302,-271 814,-594 1540,-594 1276,0 2313,1037 2313,2313 0,401 -100,781 -298,1132 -605,1070 -267,2425 768,3087 672,430 1073,1159 1073,1949 -2,1276 -1039,2313 -2315,2313 z"
   id="path3"
   inkscape:connector-curvature="0" />
  <g
   id="_174385328">
  </g>
  <g
   id="_174383568">
  </g>
  <g
   id="_174382448">
  </g>
  <g
   id="_174381840">
  </g>
  <g
   id="_174382096">
  </g>
  <g
   id="_174382224">
  </g>
  <g
   id="_174381712">
  </g>
  <g
   id="_174382672">
  </g>
  <g
   id="_174382032">
  </g>
  <g
   id="_174381904">
  </g>
  <g
   id="_174383024">
  </g>
  <g
   id="_174383216">
  </g>
  <g
   id="_174383376">
  </g>
  <g
   id="_174382928">
  </g>
  <g
   id="_174381776">
  </g>
 </g>
</svg>