<?xml version="1.0" encoding="UTF-8" standalone="no"?>
<!-- Creator: CorelDRAW X6 -->

<?xml-stylesheet href="apartments(1).css" type="text/css"?><svg
   xmlns:dc="http://purl.org/dc/elements/1.1/"
   xmlns:cc="http://creativecommons.org/ns#"
   xmlns:rdf="http://www.w3.org/1999/02/22-rdf-syntax-ns#"
   xmlns:svg="http://www.w3.org/2000/svg"
   xmlns="http://www.w3.org/2000/svg"
   xmlns:sodipodi="http://sodipodi.sourceforge.net/DTD/sodipodi-0.dtd"
   xmlns:inkscape="http://www.inkscape.org/namespaces/inkscape"
   xml:space="preserve"
   width="123.939"
   height="129.94131"
   version="1.1"
   style="clip-rule:evenodd;fill-rule:evenodd;image-rendering:optimizeQuality;shape-rendering:geometricPrecision;text-rendering:geometricPrecision"
   viewBox="0 0 123939 129864.15"
   id="svg21"
   sodipodi:docname="apartments(1).svg"
   inkscape:version="0.92.3 (2405546, 2018-03-11)"><metadata
   id="metadata27"><rdf:RDF><cc:Work
       rdf:about=""><dc:format>image/svg+xml</dc:format><dc:type
         rdf:resource="http://purl.org/dc/dcmitype/StillImage" /><dc:title></dc:title></cc:Work></rdf:RDF></metadata><defs
   id="defs25" /><sodipodi:namedview
   pagecolor="#ffffff"
   bordercolor="#666666"
   borderopacity="1"
   objecttolerance="10"
   gridtolerance="10"
   guidetolerance="10"
   inkscape:pageopacity="0"
   inkscape:pageshadow="2"
   inkscape:window-width="640"
   inkscape:window-height="480"
   id="namedview23"
   showgrid="false"
   fit-margin-top="0"
   fit-margin-left="0"
   fit-margin-right="0"
   fit-margin-bottom="0"
   inkscape:zoom="1.1211401"
   inkscape:cx="163.98392"
   inkscape:cy="96.094322"
   inkscape:window-x="0"
   inkscape:window-y="0"
   inkscape:window-maximized="0"
   inkscape:current-layer="svg21" />
 <g
   id="Слой_x0020_1"
   transform="translate(-235531,-355819.26)">
  <metadata
   id="CorelCorpID_0Corel-Layer" />
  <path
   class="fil0"
   d="m 259500,381391 31295,9504 1032,-3398 -33182,-10076 -14117,8147 1775,3076 12412,-7163 c 248,-142 531,-166 785,-89 z m 31670,11699 -31835,-9668 -12900,7444 c -477,274 -1085,109 -1359,-367 l -2770,-4801 c -274,-477 -109,-1085 367,-1359 l 15331,-8847 c 234,-143 525,-189 808,-103 l 34547,10491 c 526,160 823,716 664,1242 l -1611,5304 c -160,526 -716,823 -1242,664 z m 52026,86330 v -9230 c 0,-133 26,-259 73,-375 l 1235,-4068 -33182,-10076 -14117,8146 1054,1826 c 90,157 133,327 132,496 h 4 v 13281 c 0,552 -448,1000 -1000,1000 h -5877 c -552,0 -1000,-448 -1000,-1000 v -9230 c 0,-133 26,-259 73,-375 l 1235,-4068 -33182,-10076 -14118,8146 1054,1826 c 90,157 133,327 132,496 h 4 v 13281 c 0,552 -448,1000 -1000,1000 h -7188 v 3302 h 119940 v -3302 h -13275 c -552,0 -1000,-448 -1000,-1000 z m 1999,-9095 v 8096 h 13275 c 552,0 1000,448 1000,1000 v 5301 c 0,552 -448,1000 -1000,1000 H 236531 c -552,0 -1000,-448 -1000,-1000 v -5301 c 0,-552 448,-1000 1000,-1000 h 7188 v -12022 l -1414,-2450 c -274,-477 -109,-1085 367,-1359 l 15331,-8847 c 234,-143 525,-189 808,-103 l 34547,10491 c 526,160 823,716 664,1242 l -1504,4953 v 8096 h 3878 v -12022 l -1414,-2450 c -274,-477 -109,-1085 367,-1359 l 15331,-8847 c 234,-143 525,-189 808,-103 l 34547,10491 c 526,160 823,716 664,1242 l -1504,4953 z m -79706,9095 v -11269 c 0,-552 448,-1000 1000,-1000 113,0 222,19 324,54 l 16835,4041 c 458,109 766,518 765,968 h 4 v 7206 c 0,552 -448,1000 -1000,1000 h -16928 c -552,0 -1000,-448 -1000,-1000 z m 1999,-10006 v 9006 h 14929 v -5423 z m 50678,10006 v -11269 c 0,-552 448,-1000 1000,-1000 113,0 222,19 324,54 l 16835,4041 c 458,109 766,518 765,968 h 4 v 7206 c 0,552 -448,1000 -1000,1000 h -16928 c -552,0 -1000,-448 -1000,-1000 z m 1999,-10006 v 9006 h 14929 v -5423 z m -7988,-19554 31295,9503 1032,-3398 -33182,-10076 -14117,8146 1775,3077 12413,-7162 c 248,-142 531,-166 785,-89 v -1 z m 31670,11698 -31835,-9667 -12900,7444 c -477,274 -1085,109 -1359,-367 l -2770,-4801 c -274,-477 -109,-1085 367,-1359 l 15331,-8847 c 234,-143 525,-189 808,-103 l 34547,10491 c 526,160 823,716 664,1242 l -1610,5304 c -160,526 -716,823 -1242,664 z m -31670,-21480 31295,9503 1032,-3398 -33182,-10076 -14117,8146 1775,3077 12413,-7162 c 248,-142 531,-166 785,-89 v -1 z m 31670,11698 -31835,-9667 -12900,7444 c -477,274 -1085,109 -1359,-367 l -2770,-4801 c -274,-477 -109,-1085 367,-1359 l 15331,-8846 c 234,-143 525,-189 808,-103 l 34547,10490 c 526,160 823,716 664,1242 l -1610,5304 c -160,526 -716,823 -1242,664 z m -31670,-21480 31295,9503 1032,-3398 -33182,-10076 -14117,8146 1775,3077 12413,-7162 c 248,-142 531,-166 785,-89 v -1 z m 31670,11698 -31835,-9667 -12900,7444 c -477,274 -1085,109 -1359,-367 l -2770,-4801 c -274,-477 -109,-1085 367,-1359 l 15331,-8847 c 234,-143 525,-189 808,-103 l 34547,10491 c 526,160 823,716 664,1242 l -1610,5303 c -160,526 -716,823 -1242,664 z m -31670,-21480 31295,9503 1032,-3398 -33182,-10076 -14117,8146 1775,3076 12413,-7162 c 248,-142 531,-166 785,-89 v -1 z m 31670,11698 -31835,-9667 -12900,7444 c -477,274 -1085,109 -1359,-367 l -2770,-4801 c -274,-477 -109,-1085 367,-1359 l 15331,-8847 c 234,-143 525,-189 808,-103 l 34547,10490 c 526,160 823,716 664,1242 l -1610,5304 c -160,526 -716,823 -1242,664 z m -31670,-21480 31295,9503 1032,-3398 -33182,-10076 -14117,8147 1775,3076 12413,-7163 c 248,-142 531,-166 785,-89 v -1 z m 31670,11698 -31835,-9667 -12900,7444 c -477,274 -1085,109 -1359,-367 l -2770,-4801 c -274,-477 -109,-1085 367,-1359 l 15331,-8847 c 234,-143 525,-189 808,-103 l 34547,10491 c 526,160 823,716 664,1242 l -1610,5303 c -160,526 -716,823 -1242,664 z m -31670,-21480 31295,9504 1032,-3398 -33182,-10076 -14117,8147 1775,3076 12413,-7163 c 248,-142 531,-166 785,-89 v -1 z m 31670,11699 -31835,-9668 -12900,7444 c -477,274 -1085,109 -1359,-367 l -2770,-4801 c -274,-477 -109,-1085 367,-1359 l 15331,-8847 c 234,-143 525,-189 808,-103 l 34547,10491 c 526,160 823,716 664,1242 l -1610,5304 c -160,526 -716,823 -1242,664 z m -31670,-21480 31295,9504 1032,-3398 -33182,-10076 -14117,8147 1775,3076 12413,-7163 c 248,-142 531,-166 785,-89 v -1 z m 31670,11699 -31835,-9668 -12900,7444 c -477,274 -1085,109 -1359,-367 l -2770,-4801 c -274,-477 -109,-1085 367,-1359 l 15331,-8847 c 234,-143 525,-189 808,-103 l 34547,10491 c 526,160 823,716 664,1242 l -1610,5304 c -160,526 -716,823 -1242,664 z m -31670,-41042 31295,9503 1032,-3398 -33182,-10076 -14117,8147 1775,3076 12413,-7162 c 248,-142 531,-166 785,-89 v -1 z m 31670,11698 -31835,-9667 -12900,7444 c -477,274 -1085,109 -1359,-367 l -2770,-4801 c -274,-477 -109,-1085 367,-1359 l 15331,-8847 c 234,-143 525,-189 808,-103 l 34547,10491 c 526,160 823,716 664,1242 l -1610,5304 c -160,526 -716,823 -1242,664 z m -31670,-1917 31295,9503 1032,-3398 -33182,-10076 -14117,8147 1775,3076 12413,-7162 c 248,-142 531,-166 785,-89 v -1 z m 31670,11698 -31835,-9667 -12900,7444 c -477,274 -1085,109 -1359,-367 l -2770,-4801 c -274,-477 -109,-1085 367,-1359 l 15331,-8847 c 234,-143 525,-189 808,-103 l 34547,10491 c 526,160 823,716 664,1242 l -1610,5304 c -160,526 -716,823 -1242,664 z m -31670,-1917 31295,9504 1032,-3398 -33182,-10076 -14117,8147 1775,3076 12413,-7163 c 248,-142 531,-166 785,-89 v -1 z m 31670,11699 -31835,-9668 -12900,7444 c -477,274 -1085,109 -1359,-367 l -2770,-4801 c -274,-477 -109,-1085 367,-1359 l 15331,-8847 c 234,-143 525,-189 808,-103 l 34547,10491 c 526,160 823,716 664,1242 l -1610,5304 c -160,526 -716,823 -1242,664 z m -84347,56770 31295,9503 1032,-3398 -33182,-10076 -14118,8146 1775,3077 12412,-7162 c 248,-142 531,-166 785,-89 v -1 z m 31670,11698 -31835,-9667 -12900,7444 c -477,274 -1085,109 -1359,-367 l -2770,-4801 c -274,-477 -109,-1085 367,-1359 l 15331,-8847 c 234,-143 525,-189 808,-103 l 34547,10491 c 526,160 823,716 664,1242 l -1611,5304 c -160,526 -716,823 -1242,664 z m -31670,-21480 31295,9503 1032,-3398 -33182,-10076 -14118,8146 1775,3077 12412,-7162 c 248,-142 531,-166 785,-89 v -1 z m 31670,11698 -31835,-9667 -12900,7444 c -477,274 -1085,109 -1359,-367 l -2770,-4801 c -274,-477 -109,-1085 367,-1359 l 15331,-8846 c 234,-143 525,-189 808,-103 l 34547,10490 c 526,160 823,716 664,1242 l -1611,5304 c -160,526 -716,823 -1242,664 z m -31670,-21480 31295,9503 1032,-3398 -33182,-10076 -14118,8146 1775,3077 12412,-7162 c 248,-142 531,-166 785,-89 v -1 z m 31670,11698 -31835,-9667 -12900,7444 c -477,274 -1085,109 -1359,-367 l -2770,-4801 c -274,-477 -109,-1085 367,-1359 l 15331,-8847 c 234,-143 525,-189 808,-103 l 34547,10491 c 526,160 823,716 664,1242 l -1611,5303 c -160,526 -716,823 -1242,664 z m -31670,-21480 31295,9503 1032,-3398 -33182,-10076 -14118,8146 1775,3076 12412,-7162 c 248,-142 531,-166 785,-89 v -1 z m 31670,11698 -31835,-9667 -12900,7444 c -477,274 -1085,109 -1359,-367 l -2770,-4801 c -274,-477 -109,-1085 367,-1359 l 15331,-8847 c 234,-143 525,-189 808,-103 l 34547,10490 c 526,160 823,716 664,1242 l -1611,5304 c -160,526 -716,823 -1242,664 z m -31670,-21480 31295,9503 1032,-3398 -33182,-10076 -14117,8147 1775,3076 12412,-7163 c 248,-142 531,-166 785,-89 v -1 z m 31670,11698 -31835,-9667 -12900,7444 c -477,274 -1085,109 -1359,-367 l -2770,-4801 c -274,-477 -109,-1085 367,-1359 l 15331,-8847 c 234,-143 525,-189 808,-103 l 34547,10491 c 526,160 823,716 664,1242 l -1611,5303 c -160,526 -716,823 -1242,664 z m -31670,-21480 31295,9504 1032,-3398 -33182,-10076 -14117,8147 1775,3076 12412,-7163 c 248,-142 531,-166 785,-89 z m 31670,11699 -31835,-9668 -12900,7444 c -477,274 -1085,109 -1359,-367 l -2770,-4801 c -274,-477 -109,-1085 367,-1359 l 15331,-8847 c 234,-143 525,-189 808,-103 l 34547,10491 c 526,160 823,716 664,1242 l -1611,5304 c -160,526 -716,823 -1242,664 z m -31670,-21480 31295,9504 1032,-3398 -33182,-10076 -14117,8147 1775,3076 12412,-7163 c 248,-142 531,-166 785,-89 z m 31670,11699 -31835,-9668 -12900,7444 c -477,274 -1085,109 -1359,-367 l -2770,-4801 c -274,-477 -109,-1085 367,-1359 l 15331,-8847 c 234,-143 525,-189 808,-103 l 34547,10491 c 526,160 823,716 664,1242 l -1611,5304 c -160,526 -716,823 -1242,664 z"
   id="path3"
   inkscape:connector-curvature="0" />
  <g
   id="_174880384">
  </g>
  <g
   id="_174879392">
  </g>
  <g
   id="_174880544">
  </g>
  <g
   id="_174880960">
  </g>
  <g
   id="_174877120">
  </g>
  <g
   id="_174878656">
  </g>
  <g
   id="_174877856">
  </g>
  <g
   id="_174878528">
  </g>
  <g
   id="_174877344">
  </g>
  <g
   id="_174878720">
  </g>
  <g
   id="_174878240">
  </g>
  <g
   id="_174877216">
  </g>
  <g
   id="_174878848">
  </g>
  <g
   id="_174878400">
  </g>
  <g
   id="_174878688">
  </g>
 </g>
</svg>