<?xml version="1.0" encoding="UTF-8" standalone="no"?>
<!-- Creator: CorelDRAW X6 -->

<?xml-stylesheet href="english-cottage.css" type="text/css"?><svg
   xmlns:dc="http://purl.org/dc/elements/1.1/"
   xmlns:cc="http://creativecommons.org/ns#"
   xmlns:rdf="http://www.w3.org/1999/02/22-rdf-syntax-ns#"
   xmlns:svg="http://www.w3.org/2000/svg"
   xmlns="http://www.w3.org/2000/svg"
   xmlns:sodipodi="http://sodipodi.sourceforge.net/DTD/sodipodi-0.dtd"
   xmlns:inkscape="http://www.inkscape.org/namespaces/inkscape"
   xml:space="preserve"
   width="122.175"
   height="74.640182"
   version="1.1"
   style="clip-rule:evenodd;fill-rule:evenodd;image-rendering:optimizeQuality;shape-rendering:geometricPrecision;text-rendering:geometricPrecision"
   viewBox="0 0 122175 74640.182"
   id="svg6"
   sodipodi:docname="english-cottage.svg"
   inkscape:version="0.92.3 (2405546, 2018-03-11)"><metadata
   id="metadata12"><rdf:RDF><cc:Work
       rdf:about=""><dc:format>image/svg+xml</dc:format><dc:type
         rdf:resource="http://purl.org/dc/dcmitype/StillImage" /><dc:title></dc:title></cc:Work></rdf:RDF></metadata><defs
   id="defs10" /><sodipodi:namedview
   pagecolor="#ffffff"
   bordercolor="#666666"
   borderopacity="1"
   objecttolerance="10"
   gridtolerance="10"
   guidetolerance="10"
   inkscape:pageopacity="0"
   inkscape:pageshadow="2"
   inkscape:window-width="640"
   inkscape:window-height="480"
   id="namedview8"
   showgrid="false"
   fit-margin-top="0"
   fit-margin-left="0"
   fit-margin-right="0"
   fit-margin-bottom="0"
   inkscape:zoom="2.6074563"
   inkscape:cx="68.448713"
   inkscape:cy="62.416982"
   inkscape:window-x="0"
   inkscape:window-y="0"
   inkscape:window-maximized="0"
   inkscape:current-layer="svg6" />
 <g
   id="Слой_x0020_1"
   transform="translate(1,-49323.817)">
  <metadata
   id="CorelCorpID_0Corel-Layer" />
  <path
   class="fil0"
   d="M 1406,121222 H 3031 V 86539 l -855,389 c -189,86 -392,129 -594,129 -264,0 -526,-72 -755,-215 -405,-252 -651,-688 -651,-1156 v -5505 c 0,-532 316,-1017 812,-1242 l 4840,-2203 v -8903 c 0,-757 629,-1371 1405,-1371 h 8360 c 776,0 1406,614 1406,1371 v 3820 L 43213,59725 c 410,-187 888,-170 1283,47 l 25242,13825 c 443,243 717,700 717,1195 v 5505 c 0,487 -265,937 -696,1183 -431,246 -963,251 -1398,12 l -761,-417 v 40147 h 1391 c 776,0 1406,614 1406,1371 0,757 -629,1371 -1406,1371 H 66194 4436 1405 c -776,0 -1406,-614 -1406,-1371 0,-757 629,-1371 1406,-1371 z m 119457,-12954 h -1515 V 75094 l 797,372 c 176,82 366,123 554,123 246,0 490,-69 704,-205 378,-241 607,-658 607,-1106 v -5266 c 0,-509 -295,-973 -757,-1188 l -4514,-2107 v -8515 c 0,-724 -587,-1311 -1311,-1311 h -7797 c -724,0 -1311,587 -1311,1311 v 3654 L 81870,49447 c -382,-179 -828,-162 -1196,45 L 57131,62715 c -246,138 -437,350 -550,598 l 2503,1406 v -94 l 22287,-12518 38017,17741 v 2373 L 81870,54713 c -176,-82 -365,-123 -554,-123 -222,0 -443,56 -642,168 l -19662,11044 2677,1504 17683,-9932 35354,16498 v 34398 H 71018 v 2622 h 47019 2826 c 724,0 1311,-587 1311,-1311 0,-724 -587,-1311 -1311,-1311 z M 87920,64337 c -1,-19 -4,-38 -6,-58 -3,-22 -6,-44 -10,-65 -4,-23 -9,-45 -14,-67 -4,-18 -9,-35 -14,-53 -7,-24 -14,-48 -22,-72 -5,-16 -11,-32 -17,-47 -9,-24 -19,-47 -29,-70 -7,-16 -15,-32 -23,-48 -10,-21 -21,-42 -33,-62 -10,-17 -20,-35 -31,-52 -11,-18 -23,-35 -35,-52 -13,-19 -27,-37 -41,-55 -11,-14 -23,-28 -35,-42 -16,-19 -33,-37 -50,-55 -12,-12 -24,-25 -37,-37 -18,-17 -36,-33 -54,-49 -15,-12 -29,-24 -44,-36 -17,-14 -35,-27 -54,-40 -18,-13 -37,-26 -56,-38 -16,-10 -32,-20 -48,-29 -23,-13 -47,-26 -71,-38 -9,-5 -18,-10 -26,-14 l -4534,-2115 c -451,-211 -961,-142 -1335,135 -24,11 -47,22 -70,35 l -14104,7922 2676,1504 5041,-2831 v 12878 h -1163 c 0,484 -227,1738 -649,1985 -766,448 -1252,267 -2014,331 v 306 h 15597 c 724,0 1311,-587 1311,-1311 V 64447 c 0,-10 -1,-20 -1,-31 -1,-26 -2,-52 -4,-79 z M 77465,80786 V 66435 l 4678,-2628 3161,1475 v 15504 z m 35923,-5291 -20881,-9744 c -196,-92 -403,-131 -605,-122 -736,-25 -1355,571 -1355,1310 v 15158 c 0,724 587,1311 1311,1311 h 20976 c 724,0 1311,-587 1311,-1311 v -5414 c 0,-509 -295,-973 -756,-1188 z m -20219,-6542 7866,3671 v 8163 H 93169 V 68954 Z m 18353,11834 h -7866 v -6939 l 7866,3671 v 3269 z m 1311,5206 H 91857 c -724,0 -1311,587 -1311,1311 v 17053 c 0,724 587,1311 1311,1311 h 20976 c 724,0 1311,-587 1311,-1311 V 87304 c 0,-724 -587,-1311 -1311,-1311 z m -19664,2622 h 7866 v 14431 h -7866 z m 18353,14431 h -7866 V 88615 h 7866 z M 86614,85993 H 71017 v 2622 h 3825 v 14431 h -3825 v 2622 h 15597 c 724,0 1311,-587 1311,-1311 V 87304 c 0,-724 -587,-1311 -1311,-1311 z m -1311,17053 H 77465 V 88615 h 7838 z m 23638,-41012 v -3520 h 5175 v 5982 l -5178,-2417 c 1,-15 2,-30 2,-45 z M 36726,75294 c 2,-20 5,-40 7,-60 3,-23 7,-46 11,-69 4,-24 9,-47 15,-70 5,-19 9,-37 15,-56 7,-26 15,-50 24,-75 6,-17 12,-33 19,-50 10,-25 20,-49 31,-73 8,-17 16,-33 25,-50 11,-22 23,-44 36,-65 11,-18 22,-36 33,-54 12,-18 24,-36 37,-54 14,-20 29,-39 44,-58 12,-15 24,-30 37,-44 17,-20 35,-39 53,-57 13,-13 26,-26 40,-39 19,-18 38,-35 58,-52 16,-13 31,-26 47,-38 18,-14 38,-28 57,-42 20,-14 40,-27 60,-39 17,-10 34,-21 52,-31 25,-14 50,-27 76,-39 10,-5 19,-10 28,-15 l 4861,-2212 c 484,-220 1031,-149 1432,141 25,12 50,23 75,37 l 17346,9500 c 468,257 727,736 717,1225 0,3 1,7 1,10 v 10993 c 0,757 -629,1371 -1405,1371 H 38127 c -776,0 -1405,-614 -1405,-1371 V 75406 c 0,-11 1,-21 1,-32 1,-27 2,-55 4,-83 z m 22425,8336 -8404,-4603 v 13464 h 8404 z M 47935,92491 V 77488 l -5016,-2747 -3389,1542 v 16208 h 8404 v 0 z M 9419,86959 31806,76772 c 210,-96 432,-137 649,-128 790,-26 1453,598 1453,1370 v 15848 c 0,757 -630,1371 -1406,1371 H 10013 c -776,0 -1406,-614 -1406,-1371 v -5660 c 0,-533 316,-1017 811,-1242 z m 21678,-6839 -8434,3838 v 8534 h 8434 V 80121 Z M 11419,92492 h 8434 v -7255 l -8434,3838 z m -1405,5443 h 22489 c 776,0 1406,614 1406,1371 v 17828 c 0,757 -630,1371 -1406,1371 H 10014 c -776,0 -1406,-614 -1406,-1371 V 99306 c 0,-757 630,-1371 1406,-1371 z m 21084,2741 h -8434 v 15087 h 8434 z m -19678,15087 h 8434 V 100676 H 11420 Z M 38126,97935 h 22431 c 776,0 1405,614 1405,1371 v 17828 c 0,757 -629,1371 -1405,1371 H 38126 c -776,0 -1405,-614 -1405,-1371 V 99306 c 0,-757 629,-1371 1405,-1371 z m 21025,2741 h -8404 v 15087 h 8404 z m -19620,15087 h 8404 V 100676 H 39531 Z M 14186,72886 V 69206 H 8637 v 6254 l 5552,-2526 c -1,-16 -3,-31 -3,-47 z M 67643,75596 43747,62509 2985,81056 v 2481 L 43212,65233 c 189,-86 391,-129 594,-129 238,0 475,59 689,175 l 23148,12678 v -2362 z m -2855,45628 V 79583 c 0,-15 2,-29 2,-44 L 43747,68014 5841,85263 v 35962 h 58947 z"
   id="path3"
   inkscape:connector-curvature="0" />
 </g>
</svg>