<?xml version="1.0" encoding="UTF-8" standalone="no"?>
<!-- Generator: Adobe Illustrator 19.0.0, SVG Export Plug-In . SVG Version: 6.00 Build 0)  -->

<svg
   xmlns:dc="http://purl.org/dc/elements/1.1/"
   xmlns:cc="http://creativecommons.org/ns#"
   xmlns:rdf="http://www.w3.org/1999/02/22-rdf-syntax-ns#"
   xmlns:svg="http://www.w3.org/2000/svg"
   xmlns="http://www.w3.org/2000/svg"
   xmlns:sodipodi="http://sodipodi.sourceforge.net/DTD/sodipodi-0.dtd"
   xmlns:inkscape="http://www.inkscape.org/namespaces/inkscape"
   version="1.1"
   id="Layer_1"
   x="0px"
   y="0px"
   viewBox="0 0 465.978 512"
   xml:space="preserve"
   sodipodi:docname="skyline.svg"
   width="465.978"
   height="512"
   inkscape:version="0.92.3 (2405546, 2018-03-11)"><metadata
   id="metadata103"><rdf:RDF><cc:Work
       rdf:about=""><dc:format>image/svg+xml</dc:format><dc:type
         rdf:resource="http://purl.org/dc/dcmitype/StillImage" /><dc:title></dc:title></cc:Work></rdf:RDF></metadata><defs
   id="defs101" /><sodipodi:namedview
   pagecolor="#ffffff"
   bordercolor="#666666"
   borderopacity="1"
   objecttolerance="10"
   gridtolerance="10"
   guidetolerance="10"
   inkscape:pageopacity="0"
   inkscape:pageshadow="2"
   inkscape:window-width="640"
   inkscape:window-height="480"
   id="namedview99"
   showgrid="false"
   fit-margin-top="0"
   fit-margin-left="0"
   fit-margin-right="0"
   fit-margin-bottom="0"
   inkscape:zoom="0.65186406"
   inkscape:cx="240.3642"
   inkscape:cy="231.85368"
   inkscape:window-x="0"
   inkscape:window-y="0"
   inkscape:window-maximized="0"
   inkscape:current-layer="Layer_1" />
<g
   id="g66"
   transform="translate(-23.011)">
	<g
   id="g64">
		<g
   id="g62">
			<path
   d="M 480.36,494.742 H 465.978 V 43.146 c 0,-4.767 -3.864,-8.629 -8.629,-8.629 H 296.27 c -4.766,0 -8.629,3.862 -8.629,8.629 V 80.539 H 270.383 V 43.146 c 0,-4.767 -3.864,-8.629 -8.629,-8.629 H 224.36 V 8.629 C 224.36,3.862 220.496,0 215.731,0 c -4.765,0 -8.629,3.862 -8.629,8.629 v 25.888 h -37.393 c -4.766,0 -8.629,3.862 -8.629,8.629 v 37.393 h -25.888 c -4.766,0 -8.629,3.862 -8.629,8.629 v 71.91 h -71.91 c -4.766,0 -8.629,3.862 -8.629,8.629 V 494.741 H 31.64 c -4.766,0 -8.629,3.862 -8.629,8.629 0,4.767 3.864,8.63 8.629,8.63 h 448.72 c 4.766,0 8.629,-3.862 8.629,-8.629 0,-4.767 -3.864,-8.629 -8.629,-8.629 z M 178.337,51.775 h 74.786 V 80.539 H 178.337 Z M 149.573,494.742 H 143.82 V 480.36 c 0,-4.767 -3.864,-8.629 -8.629,-8.629 -4.765,0 -8.629,3.862 -8.629,8.629 v 14.382 h -5.753 v -28.764 h 28.764 z m 57.528,-221.484 v 14.845 206.639 h -40.27 v -37.393 c 0,-4.767 -3.864,-8.629 -8.629,-8.629 H 112.18 c -4.766,0 -8.629,3.862 -8.629,8.629 v 37.393 H 63.281 V 178.337 h 143.82 z M 215.73,161.079 H 143.82 V 97.798 h 143.82 v 166.831 h -63.28 v -28.764 h 25.888 c 4.766,0 8.629,-3.862 8.629,-8.629 0,-4.767 -3.864,-8.629 -8.629,-8.629 H 224.36 v -28.764 h 25.888 c 4.766,0 8.629,-3.862 8.629,-8.629 0,-4.767 -3.864,-8.629 -8.629,-8.629 H 224.36 v -2.876 c 0,-4.768 -3.864,-8.63 -8.63,-8.63 z M 368.18,494.742 H 224.36 v -206.639 -6.215 h 143.82 z m 80.539,0 H 385.438 V 273.258 261.752 c 0,-4.767 -3.864,-8.629 -8.629,-8.629 -4.765,0 -8.629,3.862 -8.629,8.629 v 2.876 h -17.258 v -2.876 c 0,-4.767 -3.864,-8.629 -8.629,-8.629 -4.765,0 -8.629,3.862 -8.629,8.629 v 2.876 H 304.9 V 89.169 51.775 h 143.82 v 442.967 z"
   id="path2"
   inkscape:connector-curvature="0" />
			<path
   d="m 261.753,477.485 c 4.766,0 8.629,-3.864 8.629,-8.629 V 307.778 c 0,-4.767 -3.864,-8.629 -8.629,-8.629 -4.765,0 -8.629,3.862 -8.629,8.629 v 161.079 c 0,4.765 3.863,8.628 8.629,8.628 z"
   id="path4"
   inkscape:connector-curvature="0" />
			<path
   d="m 296.27,477.485 c 4.766,0 8.629,-3.864 8.629,-8.629 V 307.778 c 0,-4.767 -3.864,-8.629 -8.629,-8.629 -4.765,0 -8.629,3.862 -8.629,8.629 v 161.079 c -0.001,4.765 3.863,8.628 8.629,8.628 z"
   id="path6"
   inkscape:connector-curvature="0" />
			<path
   d="m 330.786,477.485 c 4.766,0 8.629,-3.864 8.629,-8.629 V 307.778 c 0,-4.767 -3.864,-8.629 -8.629,-8.629 -4.765,0 -8.629,3.862 -8.629,8.629 v 161.079 c 0,4.765 3.864,8.628 8.629,8.628 z"
   id="path8"
   inkscape:connector-curvature="0" />
			<path
   d="m 342.292,109.303 c 4.766,0 8.629,-3.862 8.629,-8.629 V 89.169 c 0,-4.767 -3.864,-8.629 -8.629,-8.629 -4.765,0 -8.629,3.862 -8.629,8.629 v 11.506 c 0,4.766 3.863,8.628 8.629,8.628 z"
   id="path10"
   inkscape:connector-curvature="0" />
			<path
   d="m 376.809,109.303 c 4.766,0 8.629,-3.862 8.629,-8.629 V 89.169 c 0,-4.767 -3.864,-8.629 -8.629,-8.629 -4.765,0 -8.629,3.862 -8.629,8.629 v 11.506 c 0,4.766 3.863,8.628 8.629,8.628 z"
   id="path12"
   inkscape:connector-curvature="0" />
			<path
   d="m 411.326,109.303 c 4.766,0 8.629,-3.862 8.629,-8.629 V 89.169 c 0,-4.767 -3.864,-8.629 -8.629,-8.629 -4.765,0 -8.629,3.862 -8.629,8.629 v 11.506 c 0,4.766 3.863,8.628 8.629,8.628 z"
   id="path14"
   inkscape:connector-curvature="0" />
			<path
   d="m 342.292,166.831 c 4.766,0 8.629,-3.862 8.629,-8.629 v -11.506 c 0,-4.767 -3.864,-8.629 -8.629,-8.629 -4.765,0 -8.629,3.862 -8.629,8.629 v 11.506 c 0,4.767 3.863,8.629 8.629,8.629 z"
   id="path16"
   inkscape:connector-curvature="0" />
			<path
   d="m 376.809,166.831 c 4.766,0 8.629,-3.862 8.629,-8.629 v -11.506 c 0,-4.767 -3.864,-8.629 -8.629,-8.629 -4.765,0 -8.629,3.862 -8.629,8.629 v 11.506 c 0,4.767 3.863,8.629 8.629,8.629 z"
   id="path18"
   inkscape:connector-curvature="0" />
			<path
   d="m 411.326,166.831 c 4.766,0 8.629,-3.862 8.629,-8.629 v -11.506 c 0,-4.767 -3.864,-8.629 -8.629,-8.629 -4.765,0 -8.629,3.862 -8.629,8.629 v 11.506 c 0,4.767 3.863,8.629 8.629,8.629 z"
   id="path20"
   inkscape:connector-curvature="0" />
			<path
   d="m 342.292,224.36 c 4.766,0 8.629,-3.862 8.629,-8.629 v -11.506 c 0,-4.767 -3.864,-8.629 -8.629,-8.629 -4.765,0 -8.629,3.862 -8.629,8.629 v 11.506 c 0,4.766 3.863,8.629 8.629,8.629 z"
   id="path22"
   inkscape:connector-curvature="0" />
			<path
   d="m 376.809,224.36 c 4.766,0 8.629,-3.862 8.629,-8.629 v -11.506 c 0,-4.767 -3.864,-8.629 -8.629,-8.629 -4.765,0 -8.629,3.862 -8.629,8.629 v 11.506 c 0,4.766 3.863,8.629 8.629,8.629 z"
   id="path24"
   inkscape:connector-curvature="0" />
			<path
   d="m 411.326,224.36 c 4.766,0 8.629,-3.862 8.629,-8.629 v -11.506 c 0,-4.767 -3.864,-8.629 -8.629,-8.629 -4.765,0 -8.629,3.862 -8.629,8.629 v 11.506 c 0,4.766 3.863,8.629 8.629,8.629 z"
   id="path26"
   inkscape:connector-curvature="0" />
			<path
   d="m 100.674,247.371 c 4.766,0 8.629,-3.862 8.629,-8.629 v -11.506 c 0,-4.767 -3.864,-8.629 -8.629,-8.629 -4.765,0 -8.629,3.862 -8.629,8.629 v 11.506 c 0,4.766 3.864,8.629 8.629,8.629 z"
   id="path28"
   inkscape:connector-curvature="0" />
			<path
   d="m 135.191,247.371 c 4.766,0 8.629,-3.862 8.629,-8.629 v -11.506 c 0,-4.767 -3.864,-8.629 -8.629,-8.629 -4.765,0 -8.629,3.862 -8.629,8.629 v 11.506 c 0,4.766 3.863,8.629 8.629,8.629 z"
   id="path30"
   inkscape:connector-curvature="0" />
			<path
   d="m 169.708,247.371 c 4.766,0 8.629,-3.862 8.629,-8.629 v -11.506 c 0,-4.767 -3.864,-8.629 -8.629,-8.629 -4.765,0 -8.629,3.862 -8.629,8.629 v 11.506 c 0,4.766 3.863,8.629 8.629,8.629 z"
   id="path32"
   inkscape:connector-curvature="0" />
			<path
   d="m 100.674,304.899 c 4.766,0 8.629,-3.862 8.629,-8.629 v -11.506 c 0,-4.767 -3.864,-8.629 -8.629,-8.629 -4.765,0 -8.629,3.862 -8.629,8.629 v 11.506 c 0,4.766 3.864,8.629 8.629,8.629 z"
   id="path34"
   inkscape:connector-curvature="0" />
			<path
   d="m 135.191,304.899 c 4.766,0 8.629,-3.862 8.629,-8.629 v -11.506 c 0,-4.767 -3.864,-8.629 -8.629,-8.629 -4.765,0 -8.629,3.862 -8.629,8.629 v 11.506 c 0,4.766 3.863,8.629 8.629,8.629 z"
   id="path36"
   inkscape:connector-curvature="0" />
			<path
   d="m 169.708,304.899 c 4.766,0 8.629,-3.862 8.629,-8.629 v -11.506 c 0,-4.767 -3.864,-8.629 -8.629,-8.629 -4.765,0 -8.629,3.862 -8.629,8.629 v 11.506 c 0,4.766 3.863,8.629 8.629,8.629 z"
   id="path38"
   inkscape:connector-curvature="0" />
			<path
   d="m 100.674,362.427 c 4.766,0 8.629,-3.862 8.629,-8.629 v -11.506 c 0,-4.767 -3.864,-8.629 -8.629,-8.629 -4.765,0 -8.629,3.862 -8.629,8.629 v 11.506 c 0,4.767 3.864,8.629 8.629,8.629 z"
   id="path40"
   inkscape:connector-curvature="0" />
			<path
   d="m 135.191,362.427 c 4.766,0 8.629,-3.862 8.629,-8.629 v -11.506 c 0,-4.767 -3.864,-8.629 -8.629,-8.629 -4.765,0 -8.629,3.862 -8.629,8.629 v 11.506 c 0,4.767 3.863,8.629 8.629,8.629 z"
   id="path42"
   inkscape:connector-curvature="0" />
			<path
   d="m 169.708,362.427 c 4.766,0 8.629,-3.862 8.629,-8.629 v -11.506 c 0,-4.767 -3.864,-8.629 -8.629,-8.629 -4.765,0 -8.629,3.862 -8.629,8.629 v 11.506 c 0,4.767 3.863,8.629 8.629,8.629 z"
   id="path44"
   inkscape:connector-curvature="0" />
			<path
   d="m 100.674,419.955 c 4.766,0 8.629,-3.862 8.629,-8.629 V 399.82 c 0,-4.767 -3.864,-8.629 -8.629,-8.629 -4.765,0 -8.629,3.862 -8.629,8.629 v 11.506 c 0,4.767 3.864,8.629 8.629,8.629 z"
   id="path46"
   inkscape:connector-curvature="0" />
			<path
   d="m 135.191,419.955 c 4.766,0 8.629,-3.862 8.629,-8.629 V 399.82 c 0,-4.767 -3.864,-8.629 -8.629,-8.629 -4.765,0 -8.629,3.862 -8.629,8.629 v 11.506 c 0,4.767 3.863,8.629 8.629,8.629 z"
   id="path48"
   inkscape:connector-curvature="0" />
			<path
   d="m 169.708,419.955 c 4.766,0 8.629,-3.862 8.629,-8.629 V 399.82 c 0,-4.767 -3.864,-8.629 -8.629,-8.629 -4.765,0 -8.629,3.862 -8.629,8.629 v 11.506 c 0,4.767 3.863,8.629 8.629,8.629 z"
   id="path50"
   inkscape:connector-curvature="0" />
			<path
   d="m 411.326,281.888 c 4.766,0 8.629,-3.862 8.629,-8.629 v -11.506 c 0,-4.767 -3.864,-8.629 -8.629,-8.629 -4.765,0 -8.629,3.862 -8.629,8.629 v 11.506 c 0,4.766 3.863,8.629 8.629,8.629 z"
   id="path52"
   inkscape:connector-curvature="0" />
			<path
   d="m 411.326,339.416 c 4.766,0 8.629,-3.862 8.629,-8.629 v -11.506 c 0,-4.767 -3.864,-8.629 -8.629,-8.629 -4.765,0 -8.629,3.862 -8.629,8.629 v 11.506 c 0,4.766 3.863,8.629 8.629,8.629 z"
   id="path54"
   inkscape:connector-curvature="0" />
			<path
   d="m 411.326,396.944 c 4.766,0 8.629,-3.862 8.629,-8.629 v -11.506 c 0,-4.767 -3.864,-8.629 -8.629,-8.629 -4.765,0 -8.629,3.862 -8.629,8.629 v 11.506 c 0,4.766 3.863,8.629 8.629,8.629 z"
   id="path56"
   inkscape:connector-curvature="0" />
			<path
   d="m 411.326,454.472 c 4.766,0 8.629,-3.862 8.629,-8.629 v -11.506 c 0,-4.767 -3.864,-8.629 -8.629,-8.629 -4.765,0 -8.629,3.862 -8.629,8.629 v 11.506 c 0,4.766 3.863,8.629 8.629,8.629 z"
   id="path58"
   inkscape:connector-curvature="0" />
			<path
   d="m 258.876,135.191 c 0,-4.767 -3.864,-8.629 -8.629,-8.629 h -69.034 c -4.766,0 -8.629,3.862 -8.629,8.629 0,4.767 3.864,8.629 8.629,8.629 h 69.034 c 4.766,0 8.629,-3.862 8.629,-8.629 z"
   id="path60"
   inkscape:connector-curvature="0" />
		</g>
	</g>
</g>
<g
   id="g68"
   transform="translate(-23.011)">
</g>
<g
   id="g70"
   transform="translate(-23.011)">
</g>
<g
   id="g72"
   transform="translate(-23.011)">
</g>
<g
   id="g74"
   transform="translate(-23.011)">
</g>
<g
   id="g76"
   transform="translate(-23.011)">
</g>
<g
   id="g78"
   transform="translate(-23.011)">
</g>
<g
   id="g80"
   transform="translate(-23.011)">
</g>
<g
   id="g82"
   transform="translate(-23.011)">
</g>
<g
   id="g84"
   transform="translate(-23.011)">
</g>
<g
   id="g86"
   transform="translate(-23.011)">
</g>
<g
   id="g88"
   transform="translate(-23.011)">
</g>
<g
   id="g90"
   transform="translate(-23.011)">
</g>
<g
   id="g92"
   transform="translate(-23.011)">
</g>
<g
   id="g94"
   transform="translate(-23.011)">
</g>
<g
   id="g96"
   transform="translate(-23.011)">
</g>
</svg>