<?xml version="1.0" encoding="UTF-8" standalone="no"?>
<!-- Creator: CorelDRAW X6 -->

<?xml-stylesheet href="ico-kapitalniy.css" type="text/css"?><svg
   xmlns:dc="http://purl.org/dc/elements/1.1/"
   xmlns:cc="http://creativecommons.org/ns#"
   xmlns:rdf="http://www.w3.org/1999/02/22-rdf-syntax-ns#"
   xmlns:svg="http://www.w3.org/2000/svg"
   xmlns="http://www.w3.org/2000/svg"
   xmlns:sodipodi="http://sodipodi.sourceforge.net/DTD/sodipodi-0.dtd"
   xmlns:inkscape="http://www.inkscape.org/namespaces/inkscape"
   xml:space="preserve"
   width="124.77131"
   height="81.232994"
   version="1.1"
   style="clip-rule:evenodd;fill-rule:evenodd;image-rendering:optimizeQuality;shape-rendering:geometricPrecision;text-rendering:geometricPrecision"
   viewBox="0 0 124771.31 81184.756"
   id="svg6"
   sodipodi:docname="ico-kapitalniy.svg"
   inkscape:version="0.92.3 (2405546, 2018-03-11)"><metadata
   id="metadata12"><rdf:RDF><cc:Work
       rdf:about=""><dc:format>image/svg+xml</dc:format><dc:type
         rdf:resource="http://purl.org/dc/dcmitype/StillImage" /><dc:title></dc:title></cc:Work></rdf:RDF></metadata><defs
   id="defs10" /><sodipodi:namedview
   pagecolor="#ffffff"
   bordercolor="#666666"
   borderopacity="1"
   objecttolerance="10"
   gridtolerance="10"
   guidetolerance="10"
   inkscape:pageopacity="0"
   inkscape:pageshadow="2"
   inkscape:window-width="640"
   inkscape:window-height="480"
   id="namedview8"
   showgrid="false"
   fit-margin-top="0"
   fit-margin-left="0"
   fit-margin-right="0"
   fit-margin-bottom="0"
   inkscape:zoom="2.2422803"
   inkscape:cx="95.353376"
   inkscape:cy="31.248487"
   inkscape:window-x="0"
   inkscape:window-y="0"
   inkscape:window-maximized="0"
   inkscape:current-layer="svg6" />
 <g
   id="Слой_x0020_1"
   transform="translate(-12012,-333991.12)">
  <metadata
   id="CorelCorpID_0Corel-Layer" />
  <path
   class="fil0"
   d="m 33495,363018 h 12369 c 1,-3521 2882,-6403 6403,-6403 h 3556 c 339,-1874 1993,-3266 3909,-3266 h 6783 c 1916,0 3570,1392 3909,3266 h 1600 v -870 c 0,-5032 4113,-9145 9145,-9145 h 27830 l 1,24 h 4724 c 823,0 1489,666 1489,1489 0,823 -666,1489 -1489,1489 h -7916 l -1,-3 h -9263 c -417,3936 -3756,7053 -7853,7053 -4065,0 -7425,-3077 -7850,-7044 -3227,173 -5818,2871 -5818,6138 v 16493 c 0,3377 2769,6147 6146,6147 l 21408,-30 -20,-69 h 3114 l 19,65 5998,-8 2196,3041 2748,18864 c 231,1583 1764,2949 3372,2949 h 11618 c 1441,0 2343,-1111 2137,-2522 l -5666,-37245 6,-7685 -132,-4067 v -9 h -17 v -579 c 0,-821 -668,-1489 -1489,-1489 -823,0 -1489,-666 -1489,-1489 0,-823 666,-1489 1489,-1489 2450,0 4446,1983 4466,4429 l 1,3 c 209,1518 170,3694 170,4689 l 262,7685 5362,36812 h 1 c 468,3207 -1840,5954 -5101,5954 h -11618 c -3088,0 -5892,-2483 -6335,-5526 l -672,-4610 h -1620 c -2054,0 -4061,-1597 -4636,-3551 l -3274,-11125 H 81168 c -2651,0 -5047,-1142 -6721,-2959 v 2655 h 1883 c 1128,0 2156,464 2904,1210 l 3,-3 c 745,745 1208,1775 1208,2907 v 2394 c 0,924 -734,1686 -1657,1720 v 17280 c 0,2188 -1785,3973 -3973,3973 h -6783 c -2188,0 -3973,-1785 -3973,-3973 v -17279 c -744,0 -1344,80 -1930,-507 l -3,3 c -311,-311 -505,-741 -505,-1217 v -2394 c 0,-1133 463,-2162 1208,-2907 l 3,3 c 748,-747 1776,-1210 2904,-1210 h 1750 v -5861 c -312,80 -638,122 -974,122 h -6783 c -1461,0 -2814,-823 -3500,-2097 h -3966 c -3522,0 -6403,-2882 -6403,-6403 H 33491 c -574,0 -1050,-472 -1050,-1050 v -1724 c 0,-577 472,-1050 1050,-1050 z m 84236,-14906 c 0,823 666,1489 1489,1489 822,0 1489,-666 1489,-1489 0,-822 -666,-1489 -1489,-1489 -823,0 -1489,666 -1489,1489 z m -58971,9197 v 14072 c 3,262 113,500 287,674 l -3,3 c 177,175 421,284 690,284 h 6783 c 269,0 513,-109 690,-284 l -3,-3 c 174,-174 284,-413 287,-674 v -14072 c -3,-262 -113,-500 -287,-674 l 3,-3 c -177,-175 -421,-284 -690,-284 h -6783 c -269,0 -513,109 -690,284 l 3,3 c -174,174 -284,413 -287,674 z m -14471,17632 c 286,-870 -187,-1805 -1056,-2091 -869,-286 -1805,187 -2091,1056 -286,869 187,1805 1056,2091 870,286 1805,-187 2091,-1056 z m 5945,7092 c 501,-1523 -327,-3161 -1850,-3662 -1521,-500 -3161,327 -3662,1850 -500,1521 327,3161 1850,3662 1523,501 3161,-327 3662,-1849 z m -8417,-1578 -6193,-5596 c -277,-250 -717,-226 -965,49 l -753,833 c -249,275 -228,715 49,966 l 6193,5596 c 277,250 713,230 965,-49 l 753,-833 c 252,-279 228,-715 -49,-966 z m -7861,-24430 6192,-5596 c 279,-252 715,-228 965,49 l 753,832 c 250,277 226,717 -49,966 l -6192,5596 c -275,249 -714,230 -965,-49 l -753,-832 c -252,-279 -230,-713 49,-966 z m 12592,39591 c 1335,-887 1698,-2686 812,-4021 -886,-1334 -2687,-1698 -4021,-811 -1334,886 -1698,2686 -811,4021 887,1335 2686,1698 4021,811 z m -32724,17247 c -1120,-1238 -1812,-2892 -1812,-4698 v -74198 h 77800 l 340,1458 c -9,2 -3264,772 -12249,3584 -8138,2547 -8888,8081 -8891,8097 l -37761,-133 282,33196 c 14,1649 41,-585 2,2016 l 86,71 -90,191 h -85 c -683,746 -3398,3732 -8691,9800 -4114,4716 -5855,13917 -6520,18876 l 78,77 -150,4000 c -744,-662 -1525,-1438 -2340,-2338 z m 30542,-68889 v -7042 H 14942 v 11822 h 13419 l -40,-4744 z m 2999,-7042 v 7035 l 19642,-44 c 1075,-2127 3310,-5033 7888,-6992 H 47365 Z M 28387,351753 H 14943 v 26827 h 13672 z m -432,29826 H 14942 v 17763 c 1508,-3420 3561,-6765 5564,-9062 3777,-4330 6171,-7167 7449,-8701 z m 54902,-31981 c 410,2865 2872,5054 5837,5054 2999,0 5429,-2220 5837,-5054 H 82858 Z m -7064,39712 h -8731 v 17279 c 0,533 441,974 974,974 h 6783 c 533,0 974,-441 974,-974 z m 1657,-3349 v -766 c 0,-616 -501,-1116 -1116,-1116 H 65741 c -615,0 -1115,501 -1115,1116 v 766 h 12825 z m -5998,-26347 h -962 v 19877 h 962 z m 35134,21770 3028,10282 c 204,693 1030,1395 1767,1395 h 1183 l -1701,-11677 z m 1050,-19815 h 12326 c 1264,0 2296,1032 2296,2296 v 2129 c 0,1264 -1032,2296 -2296,2296 h -12326 c -1264,0 -2296,-1032 -2296,-2296 v -2129 c 0,-1264 1032,-2296 2296,-2296 z m 0,-8920 h 12326 c 1264,0 2296,1032 2296,2296 v 2129 c 0,1264 -1032,2296 -2296,2296 h -12326 c -1264,0 -2296,-1032 -2296,-2296 v -2129 c 0,-1264 1032,-2296 2296,-2296 z m 12326,1999 h -12326 c -161,0 -297,135 -297,297 v 2129 c 0,161 211,297 372,297 h 12251 c 662,0 313,-1970 297,-2426 0,-161 -135,-297 -297,-297 z m 0,8920 h -12326 c -161,0 -297,135 -297,297 v 2129 c 0,161 135,297 297,297 h 12326 c 392,0 208,-1561 222,-1946 0,-161 -60,-777 -222,-777 z m -64201,-3955 h -3493 c -935,0 -1786,384 -2404,1001 l -3,-3 c -615,617 -998,1469 -998,2407 v 3822 c 0,938 383,1790 998,2407 l 3,-3 c 617,617 1469,1001 2404,1001 h 3493 z"
   id="path3"
   inkscape:connector-curvature="0" />
 </g>
</svg>