<?xml version="1.0" encoding="UTF-8" standalone="no"?>
<!-- Creator: CorelDRAW X6 -->

<?xml-stylesheet href="ico-euroremont.css" type="text/css"?><svg
   xmlns:dc="http://purl.org/dc/elements/1.1/"
   xmlns:cc="http://creativecommons.org/ns#"
   xmlns:rdf="http://www.w3.org/1999/02/22-rdf-syntax-ns#"
   xmlns:svg="http://www.w3.org/2000/svg"
   xmlns="http://www.w3.org/2000/svg"
   xmlns:sodipodi="http://sodipodi.sourceforge.net/DTD/sodipodi-0.dtd"
   xmlns:inkscape="http://www.inkscape.org/namespaces/inkscape"
   xml:space="preserve"
   width="107.79346"
   height="79.015999"
   version="1.1"
   style="clip-rule:evenodd;fill-rule:evenodd;image-rendering:optimizeQuality;shape-rendering:geometricPrecision;text-rendering:geometricPrecision"
   viewBox="0 0 107793.47 78969.077"
   id="svg6"
   sodipodi:docname="ico-euroremont.svg"
   inkscape:version="0.92.3 (2405546, 2018-03-11)"><metadata
   id="metadata12"><rdf:RDF><cc:Work
       rdf:about=""><dc:format>image/svg+xml</dc:format><dc:type
         rdf:resource="http://purl.org/dc/dcmitype/StillImage" /><dc:title></dc:title></cc:Work></rdf:RDF></metadata><defs
   id="defs10" /><sodipodi:namedview
   pagecolor="#ffffff"
   bordercolor="#666666"
   borderopacity="1"
   objecttolerance="10"
   gridtolerance="10"
   guidetolerance="10"
   inkscape:pageopacity="0"
   inkscape:pageshadow="2"
   inkscape:window-width="640"
   inkscape:window-height="480"
   id="namedview8"
   showgrid="false"
   fit-margin-top="0"
   fit-margin-left="0"
   fit-margin-right="0"
   fit-margin-bottom="0"
   inkscape:zoom="1.1211401"
   inkscape:cx="52.734654"
   inkscape:cy="82.623006"
   inkscape:window-x="0"
   inkscape:window-y="0"
   inkscape:window-maximized="0"
   inkscape:current-layer="svg6" />
 <g
   id="Слой_x0020_1"
   transform="translate(-176709,-336210.46)">
  <metadata
   id="CorelCorpID_0Corel-Layer" />
  <path
   class="fil0"
   d="m 256573,375804 c -1904,1194 -4262,2653 -2747,5100 l 1685,3235 c -1149,-488 -2164,-1323 -2874,-2464 -1835,-2948 -933,-6824 2016,-8659 2949,-1835 6824,-933 8659,2016 710,1141 1010,2421 940,3667 l -2158,-2941 c -1025,-1647 -2425,-1715 -3974,-925 -2557,1421 558,-350 -1548,970 z m -78901,38123 c -611,-1039 -963,-2251 -963,-3542 v -74198 h 77800 l 492,1411 c -16601,5797 -21085,6271 -23151,23613 -1611,13532 -2502,14172 -15817,17435 -5680,1391 -12512,3066 -18759,6655 -12007,6900 -16808,29836 -16822,29902 l -2781,-1275 z m 1967,-64113 h 29167 v -10663 h -29167 z m 32166,-10663 v 10663 h 18999 c 1596,-4753 4621,-7054 12392,-10663 h -31392 z m 18223,13661 h -2480 v 12445 h 766 c 185,-1254 360,-2706 561,-4398 388,-3256 715,-5872 1153,-8047 z m -2277,15443 h -15946 v 8383 c 1133,-301 2307,-599 3526,-898 8796,-2155 11196,-2617 12420,-7485 z m -18944,9217 v -9217 h -29167 v 12230 h 20698 c 2515,-1117 5317,-2092 8470,-3013 z m -29167,-12215 h 14699 v -12445 h -14699 z m 44910,-12445 h -27213 v 12445 h 27213 z m -44910,43457 h 4356 c 2011,-3964 4231,-7070 6854,-9593 1229,-1183 2547,-2237 3975,-3193 h -15186 v 12786 z m 2944,2998 h -2944 v 7776 c 956,-2877 1928,-5455 2944,-7776 z m 73842,-41087 c 547,-340 1235,-263 1692,145 2827,1939 5747,3953 8037,5576 1038,596 2008,1298 2896,2101 532,399 946,721 1212,946 524,444 834,899 899,1360 4552,5965 4512,14171 203,20082 l 12703,17310 c 840,1350 425,3133 -926,3974 l -8183,5092 c -1350,841 -3133,426 -3973,-924 l -9833,-18875 c -7356,1516 -14929,-2067 -18379,-8844 l -506,-821 c -255,-414 -422,-1220 -537,-1707 -330,-1030 -560,-2103 -684,-3176 -724,-3541 -1675,-8577 -2464,-12969 -772,-4303 -1395,-8030 -1509,-9203 -324,-3283 -727,-6632 2589,-8565 3168,-1845 4996,-697 8311,1670 l 5,3 28,20 29,20 -2,1 c 128,100 241,223 331,368 413,665 210,1539 -454,1952 -552,343 -1248,262 -1705,-157 -2249,-1600 -3516,-2360 -5114,-1428 -1680,979 -1455,3287 -1224,5657 l 18,180 c 105,1078 717,4723 1480,8976 785,4370 1599,8742 2488,13091 108,932 293,1818 580,2712 l 84,350 c 369,866 686,1622 1158,2432 2890,4959 8507,7620 14105,6803 l -2545,-4884 c -2842,-232 -5457,-1787 -7004,-4273 -2661,-4277 -1352,-9903 2925,-12564 4276,-2661 9903,-1351 12564,2925 1539,2473 1795,5500 740,8171 l 3126,4260 c 2971,-4690 2920,-10810 -351,-15494 -442,-634 -939,-1215 -1430,-1810 l 30,-36 c -220,-171 -442,-338 -664,-504 -798,-719 -1618,-1308 -2551,-1840 -2737,-1937 -5498,-3842 -8264,-5737 -3,-2 -4,-5 -5,-8 -147,-105 -277,-241 -378,-404 -413,-664 -210,-1539 454,-1952 z m 19911,46985 c -416,-668 -1293,-871 -1960,-456 -667,415 -872,1293 -456,1960 415,667 1292,872 1959,456 668,-416 872,-1293 457,-1960 z m -16659,-27903 21973,29942 c 14,-7 -5557,3450 -8195,5146 -284,177 -15713,-30045 -17213,-32951 -35,-56 3399,-2195 3435,-2137 z m -7673,-22099 c 664,-414 1539,-210 1952,455 413,664 210,1539 -454,1952 -665,414 -1539,210 -1953,-454 -413,-665 -210,-1539 455,-1952 z"
   id="path3"
   inkscape:connector-curvature="0" />
 </g>
</svg>