<?xml version="1.0" encoding="UTF-8" standalone="no"?>
<!-- Creator: CorelDRAW X6 -->

<?xml-stylesheet href="ico-designly.css" type="text/css"?><svg
   xmlns:dc="http://purl.org/dc/elements/1.1/"
   xmlns:cc="http://creativecommons.org/ns#"
   xmlns:rdf="http://www.w3.org/1999/02/22-rdf-syntax-ns#"
   xmlns:svg="http://www.w3.org/2000/svg"
   xmlns="http://www.w3.org/2000/svg"
   xmlns:sodipodi="http://sodipodi.sourceforge.net/DTD/sodipodi-0.dtd"
   xmlns:inkscape="http://www.inkscape.org/namespaces/inkscape"
   xml:space="preserve"
   width="84.43"
   height="81.89975"
   version="1.1"
   style="clip-rule:evenodd;fill-rule:evenodd;image-rendering:optimizeQuality;shape-rendering:geometricPrecision;text-rendering:geometricPrecision"
   viewBox="0 0 84430 81851.116"
   id="svg6"
   sodipodi:docname="ico-designly.svg"
   inkscape:version="0.92.3 (2405546, 2018-03-11)"><metadata
   id="metadata12"><rdf:RDF><cc:Work
       rdf:about=""><dc:format>image/svg+xml</dc:format><dc:type
         rdf:resource="http://purl.org/dc/dcmitype/StillImage" /><dc:title></dc:title></cc:Work></rdf:RDF></metadata><defs
   id="defs10" /><sodipodi:namedview
   pagecolor="#ffffff"
   bordercolor="#666666"
   borderopacity="1"
   objecttolerance="10"
   gridtolerance="10"
   guidetolerance="10"
   inkscape:pageopacity="0"
   inkscape:pageshadow="2"
   inkscape:window-width="640"
   inkscape:window-height="480"
   id="namedview8"
   showgrid="false"
   fit-margin-top="0"
   fit-margin-left="0"
   fit-margin-right="0"
   fit-margin-bottom="0"
   inkscape:zoom="2.2422803"
   inkscape:cx="63.772249"
   inkscape:cy="54.957515"
   inkscape:window-x="0"
   inkscape:window-y="0"
   inkscape:window-maximized="0"
   inkscape:current-layer="svg6" />
 <g
   id="Слой_x0020_1"
   transform="translate(-204070,-471676.32)">
  <metadata
   id="CorelCorpID_0Corel-Layer" />
  <path
   class="fil0"
   d="m 285956,521207 c 0,-2526 2544,-2016 2544,-432 v 23031 c 0,2498 -2524,4532 -5625,4532 -3102,0 -5626,-2033 -5626,-4532 v -36251 c 0,-436 4043,-8317 4580,-9400 379,-755 1712,-755 2090,0 l 4500,9063 c 53,108 80,222 80,337 l -1,2515 c 0,1720 -2544,1720 -2544,0 v -1609 h -6162 v 29001 h 6162 l 1,-16255 z m -46824,-43081 c -3,826 -672,1494 -1499,1494 -827,0 -1499,-672 -1499,-1499 0,-1160 33,-2338 33,-3505 h -29167 v 10663 h 11710 c 2103,-476 2539,2847 415,2959 l -1922,39 v 39389 c 0,157 32,257 -55,381 -6559,9385 -9323,22570 -9334,22620 -2616,-1199 -3744,-1395 -3744,-4817 v -74198 h 77800 l 492,1411 c -12549,4382 -18433,5640 -21065,13609 l -481,1456 -5657,48 c -2180,661 -2695,-2935 -434,-2935 1136,0 2295,38 3441,38 1596,-4753 4621,-7054 12392,-10663 h -31392 v 3509 l -32,2 z m -24930,48770 v -7949 h -7204 v 12786 h 4356 c 902,-1777 1845,-3381 2848,-4837 z m 0,-10947 v -12230 h -7204 v 12230 z m 0,-15228 v -12445 h -7204 v 12445 z m -4259,34010 h -2944 v 7776 c 956,-2877 1928,-5455 2944,-7776 z m 26847,-30744 v 16036 c 35,188 0,467 0,673 h -109 c -381,694 -1398,711 -1786,0 l -132,-16793 c -3435,-266 -6310,-1194 -8108,-2545 v 45225 c 0,1146 1562,2370 4054,3170 v -17693 h 43 c 283,-969 1675,-978 1956,0 65,0 38,386 27,451 v 17757 c 1988,377 4066,457 6081,279 v -18486 h 50 c 283,-969 1675,-978 1956,0 60,0 183,427 171,486 l -150,17722 c 3653,-694 6081,-2253 6081,-3685 v -45225 c -3468,1963 -6106,2629 -10135,2629 z m 37501,-5054 c -233,0 -442,9 -629,27 l -1813,-19 c -1673,0 -1673,2544 0,2544 l 1270,1 -66,43070 h -23100 v -30461 h 20284 c 561,0 1013,-454 1013,-1013 v -6081 c 0,-559 -453,-1013 -1013,-1013 h -20284 l 1,-4500 h 11480 c 1673,0 1673,-2544 0,-2544 l -11481,-9 v -2027 c 0,-3466 -6229,-6456 -13162,-6456 -6933,0 -13162,2990 -13162,6456 v 50676 c 0,7957 26324,7957 26324,0 h 24339 c 561,0 1013,-453 1013,-1013 v -46623 c 0,-559 -453,-1013 -1013,-1013 v 0 z m -9436,1281 c 0,703 570,1272 1272,1272 702,0 1272,-570 1272,-1272 0,-702 -569,-1272 -1272,-1272 -703,0 -1272,569 -1272,1272 z m -14902,7799 h 19271 v 4054 h -19271 z m -13162,-15161 c 13281,0 13282,8108 0,8108 -13282,0 -13281,-8108 0,-8108 z m 28583,35456 c 1329,0 1351,2038 0,2038 h -13320 c -1331,0 -1349,-2041 0,-2038 z m -5059,-4836 c 1329,0 1352,2038 0,2038 h -8261 c -422,0 -800,-260 -951,-655 -257,-671 245,-1385 951,-1383 z m 5059,-4725 c 1329,0 1352,2038 0,2038 h -13320 c -1520,-821 -1144,-2041 0,-2038 z m 20877,20527 c 0,2229 0,2825 0,4531 0,1499 -1515,1720 -3375,1720 -1861,0 -3375,-220 -3375,-1720 0,-1529 0,-2931 0,-4531 z m -6213,-32627 900,-1812 h 3877 l 900,1812 z m 2838,-5717 1038,2092 h -2077 l 1038,-2092 z m 5624,15020 c 0,-722 -569,-1308 -1272,-1308 -702,0 -1272,585 -1272,1308 0,1720 2544,1720 2544,0 z"
   id="path3"
   inkscape:connector-curvature="0" />
 </g>
</svg>