<?xml version="1.0" encoding="UTF-8" standalone="no"?>
<!-- Creator: CorelDRAW X6 -->

<?xml-stylesheet href="ico-kosmeticheskiy.css" type="text/css"?><svg
   xmlns:dc="http://purl.org/dc/elements/1.1/"
   xmlns:cc="http://creativecommons.org/ns#"
   xmlns:rdf="http://www.w3.org/1999/02/22-rdf-syntax-ns#"
   xmlns:svg="http://www.w3.org/2000/svg"
   xmlns="http://www.w3.org/2000/svg"
   xmlns:sodipodi="http://sodipodi.sourceforge.net/DTD/sodipodi-0.dtd"
   xmlns:inkscape="http://www.inkscape.org/namespaces/inkscape"
   xml:space="preserve"
   width="101.78658"
   height="93.091057"
   version="1.1"
   style="clip-rule:evenodd;fill-rule:evenodd;image-rendering:optimizeQuality;shape-rendering:geometricPrecision;text-rendering:geometricPrecision"
   viewBox="0 0 101786.57 93035.777"
   id="svg6"
   sodipodi:docname="ico-kosmeticheskiy.svg"
   inkscape:version="0.92.3 (2405546, 2018-03-11)"><metadata
   id="metadata12"><rdf:RDF><cc:Work
       rdf:about=""><dc:format>image/svg+xml</dc:format><dc:type
         rdf:resource="http://purl.org/dc/dcmitype/StillImage" /><dc:title></dc:title></cc:Work></rdf:RDF></metadata><defs
   id="defs10" /><sodipodi:namedview
   pagecolor="#ffffff"
   bordercolor="#666666"
   borderopacity="1"
   objecttolerance="10"
   gridtolerance="10"
   guidetolerance="10"
   inkscape:pageopacity="0"
   inkscape:pageshadow="2"
   inkscape:window-width="640"
   inkscape:window-height="480"
   id="namedview8"
   showgrid="false"
   fit-margin-top="0"
   fit-margin-left="0"
   fit-margin-right="0"
   fit-margin-bottom="0"
   inkscape:zoom="1.5855316"
   inkscape:cx="136.38826"
   inkscape:cy="71.821585"
   inkscape:window-x="0"
   inkscape:window-y="0"
   inkscape:window-maximized="0"
   inkscape:current-layer="svg6" />
 <g
   id="Слой_x0020_1"
   transform="translate(-346167,-336214.64)">
  <metadata
   id="CorelCorpID_0Corel-Layer" />
  <path
   class="fil0"
   d="m 379132,393393 v 16992 c 0,3832 -3099,6967 -6886,6967 h -19193 c -3787,0 -6886,-3135 -6886,-6967 v -74198 h 77800 v 5300 l -2912,900 v -3234 h -71957 v 71233 c 0,2203 1777,4002 3956,4002 h 19193 c 2179,0 3956,-1799 3956,-4002 v -19957 h 18078 c 2635,0 4779,-2172 4779,-4837 v -6585 l 2930,-1284 v 7869 c 0,4249 -3435,7802 -7709,7802 h -15147 z m -179,-31889 46055,-17629 c 2325,-891 4941,277 5831,2602 l 1775,4638 1999,-765 c 3290,-1259 6992,393 8251,3683 l 4672,12205 c 943,2463 254,5297 -1715,7053 l -30736,16027 c -1040,928 -1405,2427 -906,3729 l 3135,8191 3355,-1284 c 1572,-602 3340,188 3941,1759 l 7571,19778 c 602,1571 -188,3339 -1760,3941 l -9521,3644 c -1572,602 -3340,-187 -3941,-1758 l -7571,-19778 c -602,-1572 188,-3339 1760,-3941 l 3355,-1284 -3136,-8191 c -943,-2464 -254,-5297 1715,-7053 l 30736,-16027 c 1041,-929 1405,-2427 906,-3730 l -4672,-12204 c -666,-1740 -2623,-2613 -4363,-1947 l -1998,765 1775,4638 c 890,2326 -278,4941 -2603,5831 -777,298 -1647,-92 -1944,-868 -297,-777 91,-1646 868,-1944 775,-296 1165,-1168 867,-1944 l -4627,-12088 c -297,-775 -1168,-1165 -1944,-868 l -46056,17630 c -775,296 -1164,1169 -868,1944 l 4627,12088 c 297,775 1168,1164 1944,868 l 34029,-13025 c 777,-298 1646,90 1943,867 298,777 -91,1647 -867,1944 l -34029,13026 c -2325,890 -4940,-278 -5831,-2603 l -4627,-12087 c -890,-2326 278,-4941 2603,-5831 l -1,-1 z m 45128,4644 c -297,-777 91,-1647 868,-1944 776,-297 1647,91 1944,868 297,776 -91,1646 -868,1944 -777,297 -1647,-91 -1944,-868 z m -2634,54310 c -297,-777 92,-1647 868,-1944 776,-297 1646,91 1944,868 297,776 -92,1647 -868,1944 -777,297 -1647,-91 -1944,-868 z m -9223,-14048 c -21,8 -32,32 -24,53 l 7571,19778 c 9,22 32,33 54,24 l 9521,-3644 c 22,-8 32,-32 23,-54 l -7571,-19778 c -8,-22 -32,-32 -54,-24 l -9521,3645 z"
   id="path3"
   inkscape:connector-curvature="0" />
 </g>
</svg>