<?xml version="1.0" encoding="UTF-8" standalone="no"?>
<!-- Creator: CorelDRAW X6 -->

<?xml-stylesheet href="calendar.css" type="text/css"?><svg
   xmlns:dc="http://purl.org/dc/elements/1.1/"
   xmlns:cc="http://creativecommons.org/ns#"
   xmlns:rdf="http://www.w3.org/1999/02/22-rdf-syntax-ns#"
   xmlns:svg="http://www.w3.org/2000/svg"
   xmlns="http://www.w3.org/2000/svg"
   xmlns:sodipodi="http://sodipodi.sourceforge.net/DTD/sodipodi-0.dtd"
   xmlns:inkscape="http://www.inkscape.org/namespaces/inkscape"
   xml:space="preserve"
   width="11.245"
   height="11.993999"
   version="1.1"
   style="clip-rule:evenodd;fill-rule:evenodd;image-rendering:optimizeQuality;shape-rendering:geometricPrecision;text-rendering:geometricPrecision"
   viewBox="0 0 11245 11986.878"
   id="svg6"
   sodipodi:docname="calendar.svg"
   inkscape:version="0.92.3 (2405546, 2018-03-11)"><metadata
   id="metadata12"><rdf:RDF><cc:Work
       rdf:about=""><dc:format>image/svg+xml</dc:format><dc:type
         rdf:resource="http://purl.org/dc/dcmitype/StillImage" /><dc:title></dc:title></cc:Work></rdf:RDF></metadata><defs
   id="defs10" /><sodipodi:namedview
   pagecolor="#ffffff"
   bordercolor="#666666"
   borderopacity="1"
   objecttolerance="10"
   gridtolerance="10"
   guidetolerance="10"
   inkscape:pageopacity="0"
   inkscape:pageshadow="2"
   inkscape:window-width="640"
   inkscape:window-height="480"
   id="namedview8"
   showgrid="false"
   fit-margin-top="0"
   fit-margin-left="0"
   fit-margin-right="0"
   fit-margin-bottom="0"
   inkscape:zoom="8.9691211"
   inkscape:cx="13.291426"
   inkscape:cy="12.759431"
   inkscape:window-x="0"
   inkscape:window-y="0"
   inkscape:window-maximized="0"
   inkscape:current-layer="svg6" />
 <g
   id="Слой_x0020_1"
   transform="translate(-291878,-414756.56)">
  <metadata
   id="CorelCorpID_0Corel-Layer" />
  <path
   class="fil0"
   d="m 295626,419251 h 1499 v 1499 h -1499 z m 2249,0 h 1499 v 1499 h -1499 z m 2249,0 h 1499 v 1499 h -1499 z m -6747,4498 h 1499 v 1499 h -1499 z m 2249,0 h 1499 v 1499 h -1499 z m 2249,0 h 1499 v 1499 h -1499 z m -2249,-2249 h 1499 v 1499 h -1499 z m 2249,0 h 1499 v 1499 h -1499 z m 2249,0 h 1499 v 1499 h -1499 z m -6747,0 h 1499 v 1499 h -1499 z m 8246,-6747 v 750 h -1499 v -750 h -5248 v 750 h -1499 v -750 h -1499 v 11994 h 11245 v -11994 h -1499 1 z m 750,11245 h -9746 v -8246 h 9746 z"
   id="path3"
   inkscape:connector-curvature="0" />
 </g>
</svg>