<?xml version="1.0" encoding="UTF-8" standalone="no"?>
<!-- Creator: CorelDRAW X6 -->

<?xml-stylesheet href="user2.css" type="text/css"?><svg
   xmlns:dc="http://purl.org/dc/elements/1.1/"
   xmlns:cc="http://creativecommons.org/ns#"
   xmlns:rdf="http://www.w3.org/1999/02/22-rdf-syntax-ns#"
   xmlns:svg="http://www.w3.org/2000/svg"
   xmlns="http://www.w3.org/2000/svg"
   xmlns:sodipodi="http://sodipodi.sourceforge.net/DTD/sodipodi-0.dtd"
   xmlns:inkscape="http://www.inkscape.org/namespaces/inkscape"
   xml:space="preserve"
   width="8.5460005"
   height="10.505"
   version="1.1"
   style="clip-rule:evenodd;fill-rule:evenodd;image-rendering:optimizeQuality;shape-rendering:geometricPrecision;text-rendering:geometricPrecision"
   viewBox="0 0 8546.0005 10498.762"
   id="svg6"
   sodipodi:docname="user2.svg"
   inkscape:version="0.92.3 (2405546, 2018-03-11)"><metadata
   id="metadata12"><rdf:RDF><cc:Work
       rdf:about=""><dc:format>image/svg+xml</dc:format><dc:type
         rdf:resource="http://purl.org/dc/dcmitype/StillImage" /><dc:title></dc:title></cc:Work></rdf:RDF></metadata><defs
   id="defs10" /><sodipodi:namedview
   pagecolor="#ffffff"
   bordercolor="#666666"
   borderopacity="1"
   objecttolerance="10"
   gridtolerance="10"
   guidetolerance="10"
   inkscape:pageopacity="0"
   inkscape:pageshadow="2"
   inkscape:window-width="640"
   inkscape:window-height="480"
   id="namedview8"
   showgrid="false"
   fit-margin-top="0"
   fit-margin-left="0"
   fit-margin-right="0"
   fit-margin-bottom="0"
   inkscape:zoom="22.627417"
   inkscape:cx="3.5004872"
   inkscape:cy="4.6577466"
   inkscape:window-x="0"
   inkscape:window-y="0"
   inkscape:window-maximized="0"
   inkscape:current-layer="svg6" />
 <g
   id="Слой_x0020_1"
   transform="translate(-293227,-415500.12)">
  <metadata
   id="CorelCorpID_0Corel-Layer" />
  <path
   class="fil0"
   d="m 301239,426002 h -7478 c -295,0 -534,-239 -534,-534 0,-766 323,-1693 865,-2481 453,-657 1009,-1153 1610,-1442 -265,-241 -492,-534 -673,-870 -289,-537 -442,-1157 -442,-1795 0,-886 292,-1723 821,-2357 553,-661 1296,-1026 2092,-1026 797,0 1540,364 2092,1026 529,634 821,1471 821,2357 0,637 -153,1258 -442,1795 -181,335 -409,628 -673,869 601,289 1157,785 1610,1442 542,787 865,1714 865,2481 0,295 -239,534 -534,534 h 1 z m -6877,-1068 h 6275 c -103,-438 -318,-917 -609,-1341 -461,-670 -1037,-1109 -1621,-1235 -246,-53 -421,-271 -421,-522 v -382 c 0,-192 103,-369 270,-464 662,-376 1089,-1205 1089,-2110 0,-1277 -828,-2315 -1845,-2315 -1017,0 -1846,1038 -1846,2315 0,906 428,1734 1090,2110 167,95 270,272 270,464 v 382 c 0,252 -175,469 -422,522 -584,126 -1159,564 -1621,1235 -292,424 -507,903 -609,1341 z"
   id="path3"
   inkscape:connector-curvature="0" />
 </g>
</svg>