<?xml version="1.0" encoding="UTF-8" standalone="no"?>
<!-- Creator: CorelDRAW X6 -->

<?xml-stylesheet href="2>?@>A.css" type="text/css"?><svg
   xmlns:dc="http://purl.org/dc/elements/1.1/"
   xmlns:cc="http://creativecommons.org/ns#"
   xmlns:rdf="http://www.w3.org/1999/02/22-rdf-syntax-ns#"
   xmlns:svg="http://www.w3.org/2000/svg"
   xmlns="http://www.w3.org/2000/svg"
   xmlns:sodipodi="http://sodipodi.sourceforge.net/DTD/sodipodi-0.dtd"
   xmlns:inkscape="http://www.inkscape.org/namespaces/inkscape"
   xml:space="preserve"
   width="71.05629"
   height="105.13052"
   version="1.1"
   style="clip-rule:evenodd;fill-rule:evenodd;image-rendering:optimizeQuality;shape-rendering:geometricPrecision;text-rendering:geometricPrecision"
   viewBox="0 0 71056.29 105130.52"
   id="svg6"
   sodipodi:docname="вопрос.svg"
   inkscape:version="0.92.3 (2405546, 2018-03-11)"><metadata
   id="metadata12"><rdf:RDF><cc:Work
       rdf:about=""><dc:format>image/svg+xml</dc:format><dc:type
         rdf:resource="http://purl.org/dc/dcmitype/StillImage" /><dc:title></dc:title></cc:Work></rdf:RDF></metadata><defs
   id="defs10" /><sodipodi:namedview
   pagecolor="#ffffff"
   bordercolor="#666666"
   borderopacity="1"
   objecttolerance="10"
   gridtolerance="10"
   guidetolerance="10"
   inkscape:pageopacity="0"
   inkscape:pageshadow="2"
   inkscape:window-width="640"
   inkscape:window-height="480"
   id="namedview8"
   showgrid="false"
   fit-margin-top="0"
   fit-margin-left="0"
   fit-margin-right="0"
   fit-margin-bottom="0"
   inkscape:zoom="1.7083334"
   inkscape:cx="66.799002"
   inkscape:cy="53.242678"
   inkscape:window-x="0"
   inkscape:window-y="0"
   inkscape:window-maximized="0"
   inkscape:current-layer="svg6" />
 <g
   id="Слой_x0020_1"
   transform="translate(-745394.95,-446687.13)">
  <metadata
   id="CorelCorpID_0Corel-Layer" />
  <path
   class="fil0"
   d="m 771840,539702 c 0,4937 4189,9133 9133,9133 4937,0 9133,-4189 9133,-9133 0,-4945 -4192,-9133 -9133,-9133 -4945,0 -9133,4192 -9133,9133 z m -23406,-60357 1465,1 h -130 c 828,1 1629,672 1630,1500 0,829 -673,1501 -1502,1500 l -3008,7 c 0,-1 -1504,-691 -1494,-1518 527,-44743 70916,-47355 71016,3113 198,99 -340,1501 -1496,1501 -829,2 -1501,-669 -1504,-1496 l -24,-3262 c -187,-40402 -62698,-41313 -64952,-1346 z m 24022,68921 c -2241,-2241 -3617,-5322 -3617,-8564 0,-6585 5539,-12133 12133,-12133 6585,0 12133,5539 12133,12133 0,10583 -12967,16247 -20650,8564 z m 16625,-28903 c 250,-4415 1677,-8498 5127,-11435 861,-39 10769,-9504 11934,-10793 522,-582 1018,-1119 1550,-1698 v -1 c 561,-609 1508,-652 2121,-91 611,560 651,1508 90,2120 -293,318 -585,637 -878,954 -385,363 -11229,10387 -12882,11787 l -2,-4 c -3168,2700 -4102,6654 -4102,10661 0,828 -672,1500 -1500,1500 h -19130 c -828,0 -1500,-672 -1500,-1500 0,-8484 2652,-16048 8470,-22292 4800,-5621 13938,-9402 13938,-17765 h 6 c -44,-14950 -22102,-15377 -22670,-20 30,856 -635,1567 -1498,1567 l -4013,-8 -1633,1 c -1971,2 -1976,-2998 -2,-3000 1420,0 2841,7 4260,7 2082,-18109 28483,-16724 28545,1453 h 6 c 0,9919 -9064,13466 -14744,19801 -4924,5285 -7345,11578 -7635,18756 h 16143 z m 24299,-29929 c -678,-478 -1613,-317 -2092,359 -478,676 -317,1612 359,2091 677,478 1613,318 2091,-359 480,-677 319,-1612 -358,-2091 z m -54221,-8640 c -30,-829 -723,-1476 -1551,-1448 -827,28 -1475,722 -1448,1550 30,828 724,1478 1551,1448 829,-27 1476,-722 1448,-1550 z"
   id="path3"
   inkscape:connector-curvature="0" />
 </g>
</svg>